<?xml version="1.0" encoding="UTF-8" standalone="no"?>
<svg
   xmlns:dc="http://purl.org/dc/elements/1.1/"
   xmlns:cc="http://creativecommons.org/ns#"
   xmlns:rdf="http://www.w3.org/1999/02/22-rdf-syntax-ns#"
   xmlns:svg="http://www.w3.org/2000/svg"
   xmlns="http://www.w3.org/2000/svg"
   viewBox="0 -200 2560 1440"
   xml:space="preserve"
   id="svg2"
   version="1.1"><metadata
     id="metadata8"><rdf:RDF><cc:Work
         rdf:about=""><dc:format>image/svg+xml</dc:format><dc:type
           rdf:resource="http://purl.org/dc/dcmitype/StillImage" /></cc:Work></rdf:RDF></metadata><defs
     id="defs6"><clipPath
       id="clipPath18"
       clipPathUnits="userSpaceOnUse"><path
         id="path16"
         d="M 0,1080 H 1920 V 0 H 0 Z" /></clipPath></defs><g
     transform="matrix(1.3333333,0,0,-1.3333333,0,1440)"
     id="g10"><g
       id="g12"><g
         clip-path="url(#clipPath18)"
         id="g14"><g
           transform="translate(424.1953,413.0469)"
           id="g20"><path
             id="path22"
             style="fill:#ffdca5;fill-opacity:1;fill-rule:nonzero;stroke:none"
             d="m 0,0 c 0,0 -35.427,-18.558 -46.834,-41.051 0,0 -2.571,11.247 -7.391,32.134 -4.82,20.887 -19.602,28.036 -25.546,25.145 -5.945,-2.893 -7.391,-17.433 -3.535,-25.627 0,0 -10.122,10.684 -16.549,8.595 -6.426,-2.089 -5.944,-9.72 -10.604,-13.255 -4.659,-3.535 -11.005,-1.285 -12.05,-6.426 -1.044,-5.142 1.928,-11.166 0.723,-14.139 -1.205,-2.973 -2.169,-8.033 11.648,-27.153 13.818,-19.119 40.167,-38.078 60.974,-40.649 20.807,-2.57 18.155,3.294 22.895,7.07 4.74,3.775 41.934,25.707 41.934,25.707 C 5.103,-47.966 -0.261,-24.118 0,0" /></g><g
           transform="translate(645.1133,401.2373)"
           id="g24"><path
             id="path26"
             style="fill:#ffdca5;fill-opacity:1;fill-rule:nonzero;stroke:none"
             d="m 0,0 c 0,0 37.596,-35.989 41.613,-49.565 0,0 3.535,11.005 10.202,31.008 6.668,20.003 22.012,26.189 27.635,22.735 5.624,-3.454 5.784,-18.075 1.285,-25.787 0,0 11.006,9.72 17.272,7.069 6.266,-2.651 4.981,-10.122 9.399,-13.657 4.419,-3.534 9.239,-2.651 9.801,-8.033 0.563,-5.382 -1.285,-10.524 0,-13.738 1.286,-3.213 1.446,-8.033 -13.978,-26.027 -15.424,-17.995 -43.782,-34.383 -64.267,-35.107 -20.485,-0.722 -17.754,4.821 -22.172,9.079 -10.343,6.85 -21.072,13.099 -32.134,18.717 C -7.419,-56.129 -2.278,-28.217 0,0" /></g><g
           transform="translate(696.2056,683.6914)"
           id="g28"><path
             id="path30"
             style="fill:#ffdca5;fill-opacity:1;fill-rule:nonzero;stroke:none"
             d="m 0,0 c -7.019,0.709 -14.079,0.923 -21.127,0.643 -18.156,70.613 -79.772,118.813 -146.369,111.021 -10.147,-1.15 -20.107,-3.579 -29.643,-7.23 -98.168,-27.635 -96.882,-114.878 -87.323,-151.51 0,0 -21.61,8.034 -29.161,-12.773 -7.551,-20.806 5.543,-35.989 23.538,-41.211 12.13,-3.535 17.834,-1.446 20.244,0 24.984,-55.833 79.209,-91.581 137.29,-84.752 62.5,7.39 109.254,61.616 115.842,128.534 12.667,-1.233 24.516,6.422 28.599,18.477 C 18.075,-17.513 11.488,-0.964 0,0" /></g><g
           transform="translate(543.4912,574.9995)"
           id="g32"><path
             id="path34"
             style="fill:#5e403e;fill-opacity:1;fill-rule:nonzero;stroke:none"
             d="m 0,0 c 23.363,-11.607 51.713,-2.077 63.32,21.286 0.677,1.363 1.288,2.758 1.831,4.18 0.642,2.008 -2.812,3.856 -3.776,2.008 C 56.243,16.986 47.763,8.506 37.275,3.374 25.306,-1.711 11.834,-1.97 -0.321,2.651 c -1.366,0.402 -1.286,-2.169 0,-2.812 z" /></g><g
           transform="translate(498.665,646.6572)"
           id="g36"><path
             id="path38"
             style="fill:#5e403e;fill-opacity:1;fill-rule:nonzero;stroke:none"
             d="m 0,0 c -1.536,3.011 -4.654,4.882 -8.034,4.82 -2.596,-0.376 -4.845,-1.995 -6.025,-4.338 -1.666,-3.665 -1.895,-7.822 -0.642,-11.649 1.606,-6.346 8.033,-14.459 15.263,-9.88 C 7.792,-16.468 3.133,-4.98 0,0" /></g><g
           transform="translate(492.8809,649.0674)"
           id="g40"><path
             id="path42"
             style="fill:#ffffff;fill-opacity:1;fill-rule:nonzero;stroke:none"
             d="M 0,0 C -2.571,1.285 -4.579,-2.008 -3.213,-4.097 -1.848,-6.186 -0.081,-8.114 2.25,-6.587 3.039,-5.984 3.439,-5 3.293,-4.017 3.002,-2.181 1.743,-0.645 0,0" /></g><g
           transform="translate(608.3203,670.1147)"
           id="g44"><path
             id="path46"
             style="fill:#5e403e;fill-opacity:1;fill-rule:nonzero;stroke:none"
             d="m 0,0 c -1.543,2.993 -4.667,4.836 -8.033,4.74 -2.55,-0.383 -4.761,-1.967 -5.945,-4.258 -1.634,-3.709 -1.806,-7.899 -0.482,-11.729 1.607,-6.266 8.033,-14.299 15.103,-9.72 C 7.712,-16.388 3.133,-4.9 0,0" /></g><g
           transform="translate(602.6167,672.5249)"
           id="g48"><path
             id="path50"
             style="fill:#ffffff;fill-opacity:1;fill-rule:nonzero;stroke:none"
             d="m 0,0 c -2.57,1.285 -4.579,-1.928 -3.213,-4.017 1.365,-2.088 3.052,-4.017 5.382,-2.49 0.763,0.588 1.16,1.534 1.044,2.49 C 2.953,-2.193 1.723,-0.654 0,0" /></g><g
           transform="translate(525.8979,741.0493)"
           id="g52"><path
             id="path54"
             style="fill:#5e403e;fill-opacity:1;fill-rule:nonzero;stroke:none"
             d="m 0,0 c -14.46,-3.374 -30.848,1.446 -33.017,18.156 -0.334,7.877 4.478,15.062 11.89,17.753 4.154,2.103 9.156,1.569 12.773,-1.365 7.31,-5.624 -2.169,-18.959 -10.042,-13.657 -1.527,1.044 -3.053,-1.767 -1.768,-3.053 3.5,-3.3 8.878,-3.572 12.693,-0.643 3.294,2.33 8.757,7.07 7.552,11.809 -2.929,9.266 -12.813,14.402 -22.078,11.474 -1.725,-0.545 -3.356,-1.353 -4.835,-2.395 -10.38,-6.781 -13.509,-20.575 -7.069,-31.17 8.146,-10.88 22.633,-14.849 35.187,-9.64 0.883,0 0,2.731 -1.286,2.49 z" /></g><g
           transform="translate(472.7974,658.7075)"
           id="g56"><path
             id="path58"
             style="fill:#5e403e;fill-opacity:1;fill-rule:nonzero;stroke:none"
             d="m 0,0 c 2.029,2.801 4.562,5.198 7.471,7.069 3.564,1.373 7.468,1.598 11.167,0.643 1.526,0 2.57,2.651 1.204,3.615 -6.748,4.9 -21.93,-0.804 -21.448,-10.042 0,-0.884 1.124,-0.964 1.606,-0.482 z" /></g><g
           transform="translate(582.6938,686.4224)"
           id="g60"><path
             id="path62"
             style="fill:#5e403e;fill-opacity:1;fill-rule:nonzero;stroke:none"
             d="m 0,0 c 2.227,3.231 5.53,5.566 9.319,6.587 3.403,0.476 6.87,0.146 10.122,-0.963 1.767,0 2.41,2.731 1.285,3.775 -6.989,6.347 -20.083,0.884 -23.056,-7.23 -0.204,-0.726 0.219,-1.48 0.945,-1.685 0.461,-0.129 0.956,-0.008 1.305,0.32 z" /></g><g
           transform="translate(556.7461,635.8926)"
           id="g64"><path
             id="path66"
             style="fill:#5e403e;fill-opacity:1;fill-rule:nonzero;stroke:none"
             d="m 0,0 c 3.885,-0.286 7.276,-2.743 8.756,-6.346 1.057,-4.62 0.093,-9.471 -2.651,-13.336 -0.723,-1.446 2.089,-2.249 3.053,-1.285 4.211,4.213 5.534,10.516 3.374,16.067 C 10.81,-0.115 6.014,2.849 0.964,2.25 0.41,2.25 -0.04,1.8 -0.04,1.245 -0.04,0.69 0.41,0.241 0.964,0.241 Z" /></g><g
           transform="translate(618.603,488.8018)"
           id="g68"><path
             id="path70"
             style="fill:#6953f8;fill-opacity:1;fill-rule:nonzero;stroke:none"
             d="m 0,0 c -6.454,1.432 -10.525,7.823 -9.093,14.277 1.431,6.454 7.824,10.526 14.278,9.094 C 11.639,21.939 15.71,15.547 14.278,9.093 14.099,8.286 13.837,7.5 13.496,6.748 11.167,1.624 5.583,-1.185 0.081,0 Z m -103.389,33.178 c -6.454,1.431 -10.526,7.824 -9.094,14.277 1.432,6.454 7.824,10.525 14.278,9.094 6.454,-1.432 10.525,-7.824 9.094,-14.278 -0.18,-0.807 -0.441,-1.592 -0.782,-2.345 -2.33,-5.124 -7.914,-7.933 -13.416,-6.748 z m 156.811,-3.133 -90.777,30.205 -89.17,29.724 c -2.097,0.796 -4.412,0.796 -6.508,0 -2.056,-0.925 -3.69,-2.588 -4.578,-4.66 l -89.011,-208.064 c -1.936,-4.576 0.203,-9.856 4.779,-11.793 0.225,-0.096 0.453,-0.181 0.684,-0.258 l 215.697,-71.176 c 4.43,-1.704 9.404,0.505 11.109,4.936 0.117,0.304 0.216,0.614 0.298,0.929 L 59.367,19.279 c 1.162,4.595 -1.438,9.302 -5.945,10.766" /></g><g
           transform="translate(517.4629,532.4229)"
           id="g72"><path
             id="path74"
             style="fill:#ff88b3;fill-opacity:1;fill-rule:nonzero;stroke:none"
             d="M 0,0 C 2.527,-0.839 3.896,-3.566 3.057,-6.093 L 3.053,-6.105 c -12.372,-37.276 -1.366,-74.63 24.582,-83.226 29.081,-9.641 55.671,10.202 69.569,51.895 0.843,2.529 3.576,3.896 6.106,3.053 2.528,-0.843 3.895,-3.577 3.052,-6.105 -15.505,-46.594 -47.638,-69.328 -81.78,-58.001 -31.491,10.523 -44.987,52.377 -30.687,95.436 0.838,2.527 3.566,3.896 6.092,3.057 z" /></g><g
           transform="translate(654.9946,504.7881)"
           id="g76"><path
             id="path78"
             style="fill:#ffdca5;fill-opacity:1;fill-rule:nonzero;stroke:none"
             d="m 0,0 c 0,0 -11.89,18.235 -22.252,9.801 -10.364,-8.436 9.961,-30.528 9.961,-30.528 -4.017,-7.183 -9.489,-13.449 -16.067,-18.396 -8.837,-5.222 -13.898,-16.95 -4.579,-20.726 6.448,-2.232 13.353,-2.812 20.083,-1.687 0,0 -14.058,-14.861 -3.936,-20.887 4.649,-3.654 11.108,-3.944 16.067,-0.723 0,0 -8.033,-11.648 10.684,-11.648 18.718,0 34.303,19.28 42.095,33.659 9.537,14.722 6.985,34.187 -6.025,45.951 C 32.819,-5.114 16.61,0.232 0,0" /></g><g
           transform="translate(438.0933,512.8213)"
           id="g80"><path
             id="path82"
             style="fill:#ffdca5;fill-opacity:1;fill-rule:nonzero;stroke:none"
             d="m 0,0 c -17.043,-5.113 -30.493,-18.263 -35.99,-35.187 -6.025,-19.52 13.256,-36.31 24.1,-41.933 10.846,-5.624 27.314,-9.239 33.5,-6.427 3.649,1.784 5.957,5.497 5.945,9.56 6.429,0.874 12.078,4.71 15.263,10.363 4.659,9.238 -9.078,15.584 -9.078,15.584 0,0 16.067,-1.687 16.87,9.399 0.804,11.086 -27.715,20.003 -33.74,25.386 0,0 15.103,16.067 6.507,24.1 C 14.781,18.878 8.515,13.496 0,0" /></g><g
           transform="translate(869.4248,609.9712)"
           id="g84"><path
             id="path86"
             style="fill:#ff88b3;fill-opacity:1;fill-rule:nonzero;stroke:none"
             d="M 0,0 C 8.993,23.72 26.001,30.889 51.025,21.505 76.178,11.99 84.261,-4.692 75.268,-28.543 l -33.04,-76.832 h 52.785 v 0.391 h 0.391 v 86.216 c -0.132,17.986 4.038,29.814 12.512,35.483 8.471,5.67 18.637,8.178 30.498,7.527 11.858,-0.654 21.897,-4.432 30.107,-11.339 8.211,-6.91 12.317,-16.945 12.317,-30.107 V -262.557 H 95.404 v 85.433 H -7.82 c -14.99,0 -25.611,4.137 -31.867,12.415 -6.256,8.275 -9.384,18.408 -9.384,30.4 0,6.385 1.433,12.771 4.301,19.159 z" /></g><g
           transform="translate(1171.8633,408.2148)"
           id="g88"><path
             id="path90"
             style="fill:#ff88b3;fill-opacity:1;fill-rule:nonzero;stroke:none"
             d="m 0,0 c 3.779,-1.827 8.08,-2.737 12.903,-2.737 5.343,0 10.069,1.139 14.174,3.422 4.106,2.278 7.624,6.481 10.557,12.609 2.932,6.125 5.147,14.531 6.647,25.22 1.497,10.684 2.248,24.437 2.248,41.25 0,20.461 -1.368,37.013 -4.105,49.657 z m 20.137,161.288 c -2.218,0.65 -4.628,0.977 -7.234,0.977 -12.383,0 -21.147,-6.681 -26.295,-20.038 -5.15,-13.362 -7.721,-34.183 -7.721,-62.463 0,-15.249 0.65,-27.956 1.955,-38.122 z M -98.336,80.937 c 0,22.156 2.346,42.096 7.038,59.823 4.692,17.723 11.76,32.811 21.211,45.259 9.448,12.444 21.047,21.993 34.8,28.64 13.749,6.647 29.813,9.971 48.19,9.971 18.115,0 34.081,-3.324 47.898,-9.971 13.813,-6.647 25.415,-16.196 34.799,-28.64 9.384,-12.448 16.422,-27.536 21.114,-45.259 4.692,-17.727 7.038,-37.667 7.038,-59.823 0,-26.459 -2.771,-48.973 -8.309,-67.545 -5.541,-18.573 -13.196,-33.66 -22.971,-45.258 -9.775,-11.602 -21.475,-20.072 -35.092,-25.415 -13.621,-5.343 -28.445,-8.016 -44.477,-8.016 -16.422,0 -31.411,2.673 -44.965,8.016 -13.556,5.343 -25.219,13.813 -34.995,25.415 -9.774,11.598 -17.432,26.685 -22.97,45.258 -5.541,18.572 -8.309,41.086 -8.309,67.545" /></g><g
           transform="translate(1359.7393,609.9712)"
           id="g92"><path
             id="path94"
             style="fill:#ff88b3;fill-opacity:1;fill-rule:nonzero;stroke:none"
             d="M 0,0 C 8.993,23.72 26.001,30.889 51.025,21.505 76.178,11.99 84.261,-4.692 75.268,-28.543 l -33.04,-76.832 h 52.785 v 0.391 h 0.391 v 86.216 c -0.132,17.986 4.038,29.814 12.512,35.483 8.471,5.67 18.637,8.178 30.498,7.527 11.858,-0.654 21.897,-4.432 30.107,-11.339 8.211,-6.91 12.317,-16.945 12.317,-30.107 V -262.557 H 95.404 v 85.433 H -7.82 c -14.99,0 -25.611,4.137 -31.867,12.415 -6.255,8.275 -9.383,18.408 -9.383,30.4 0,6.385 1.432,12.771 4.3,19.159 z" /></g></g></g></g></svg>