<svg xmlns="http://www.w3.org/2000/svg" viewBox="0 0 25.88 19.01"><defs><style>.cls-1{fill:#7b6ff6;}</style></defs><title>add product</title><g id="Слой_2" data-name="Слой 2"><g id="Слой_1-2" data-name="Слой 1"><path class="cls-1" d="M25.77,5.09h0L21.42,1.23a.41.41,0,0,0-.14-.08L18.16,0a.41.41,0,0,0-.55.37A2.26,2.26,0,0,1,15.38,2.6,2.26,2.26,0,0,1,13.15.39.41.41,0,0,0,12.72,0L12.6,0,9.47,1.16a.41.41,0,0,0-.14.08L5.46,4.7A7.26,7.26,0,0,0,7,19H21.92a.41.41,0,0,0,.41-.41V9.13l3.42-3.46A.41.41,0,0,0,25.77,5.09ZM1.16,11.73a6.11,6.11,0,1,1,6.11,6.11A6.11,6.11,0,0,1,1.16,11.73Zm20-2.94v9.08l-10,0A7.27,7.27,0,0,0,7.34,4.47l2.74-2.38,2.08-.83A3.28,3.28,0,0,0,16,3.59a3.08,3.08,0,0,0,2.5-2.33l2.42.92,3.46,3.21Z"/><polygon class="cls-1" points="5.71 19.01 5.71 19.01 5.71 19.01 5.71 19.01"/><path class="cls-1" d="M7.91,15V12.37h2.67a.63.63,0,0,0,0-1.27H7.91V8.43a.63.63,0,0,0-1.27,0V11.1H4a.63.63,0,1,0,0,1.27H6.64V15a.63.63,0,1,0,1.27,0Z"/></g></g></svg>