<svg xmlns="http://www.w3.org/2000/svg" width="20" height="22" fill="#a0a5aa" viewBox="0 0 17.66 19.13"><title>archive</title><g id="Слой_2" data-name="Слой 2"><g id="Слой_1-2" data-name="Слой 1"><path d="M5.59,7.86a.54.54,0,0,0,0,.76l2.86,2.86a.54.54,0,0,0,.38.16.53.53,0,0,0,.38-.16l2.86-2.86a.54.54,0,1,0-.76-.76L9.37,9.79V.54a.54.54,0,1,0-1.08,0V9.79L6.36,7.86A.54.54,0,0,0,5.59,7.86Z"/><path d="M17.64,12.27,15.77,5.49a.55.55,0,0,0-.3-.35l-.05,0a.55.55,0,0,0-.22,0H11.81a.54.54,0,0,0,0,1.08h3l1.59,5.74H12.23a.54.54,0,0,0-.54.54v.49a1.29,1.29,0,0,1-1.29,1.29H7.1a1.29,1.29,0,0,1-1.29-1.29v-.49a.54.54,0,0,0-.54-.54h-4L2.83,6.13h3a.54.54,0,0,0,0-1.08H2.47a.55.55,0,0,0-.22,0l-.05,0a.54.54,0,0,0-.3.35L0,12.26a.59.59,0,0,0,0,.14v2.83a3.89,3.89,0,0,0,3.89,3.89h9.89a3.89,3.89,0,0,0,3.89-3.89V12.42A.42.42,0,0,0,17.64,12.27Zm-1.05,3h0A2.82,2.82,0,0,1,13.78,18H3.89a2.82,2.82,0,0,1-2.81-2.81V13H4.74a2.37,2.37,0,0,0,2.37,2.32H10.4A2.37,2.37,0,0,0,12.77,13h3.82Z"/></g></g></svg>