<svg xmlns="http://www.w3.org/2000/svg" width="31" height="36" viewBox="0 0 15.53 20.95"><defs><style>.cls-1{fill:#6354f4;}</style></defs><title>bag</title><g id="Слой_2" data-name="Слой 2"><g id="Слой_1-2" data-name="Слой 1"><path class="cls-1" d="M15.22,21H.32A.32.32,0,0,1,0,20.62L.71,5.72A.32.32,0,0,1,1,5.42H14.51a.32.32,0,0,1,.32.3l.71,14.9a.32.32,0,0,1-.32.33ZM.86,20.11H14.67L14,6.27H1.52Z"/><path class="cls-1" d="M11.61,5.84V4.63a3.84,3.84,0,0,0-7.69,0V5.84H3.14V4.63a4.63,4.63,0,0,1,9.26,0V5.84Z"/></g></g></svg>