<svg xmlns="http://www.w3.org/2000/svg" width="19" height="17" viewBox="0 0 20.55 18.99"><defs><style>.cls-1{fill:#000103;}</style></defs><title>calendar</title><g id="Слой_2" data-name="Слой 2"><g id="Слой_1-2" data-name="Слой 1"><path class="cls-1" d="M2.87,19h14.8a2.88,2.88,0,0,0,2.88-2.88V5a2.67,2.67,0,0,0-2.67-2.67H16.23V.73a.73.73,0,1,0-1.45,0V2.35H5.89V.73a.73.73,0,1,0-1.45,0V2.35H2.67A2.67,2.67,0,0,0,0,5V16.12A2.88,2.88,0,0,0,2.87,19ZM3,3.36H4.44V5.19a.73.73,0,1,0,1.45,0V3.36h8.89V5.19a.73.73,0,1,0,1.45,0V3.36h1.34a1.94,1.94,0,0,1,1.94,1.93V7.84H1V5.31A1.94,1.94,0,0,1,3,3.36ZM1,9H19.54v7.18a1.7,1.7,0,0,1-1.7,1.7H2.71A1.7,1.7,0,0,1,1,16.15Z"/></g></g></svg>