<svg xmlns="http://www.w3.org/2000/svg" width="19" height="17" viewBox="0 0 21.62 19.01"><defs><style>.cls-1{fill:#000103;}</style></defs><title>cart</title><g id="Слой_2" data-name="Слой 2"><g id="Слой_1-2" data-name="Слой 1"><path class="cls-1" d="M21.5,3.79A.63.63,0,0,0,21,3.53H5.76L5.05.5A.63.63,0,0,0,4.43,0H.63a.63.63,0,0,0,0,1.27H3.93l2.52,11a.54.54,0,0,0,.53.42H18.46a.63.63,0,0,0,.61-.46L21.6,4.34A.63.63,0,0,0,21.5,3.79ZM18,11.4H7.48L6,4.79H20.15Z"/><path class="cls-1" d="M8,13.69a2.66,2.66,0,1,0,2.66,2.66A2.66,2.66,0,0,0,8,13.69Zm0,4a1.34,1.34,0,1,1,1.34-1.34A1.34,1.34,0,0,1,8,17.69Z"/><path class="cls-1" d="M17.84,13.69a2.66,2.66,0,1,0,2.66,2.66A2.66,2.66,0,0,0,17.84,13.69Zm0,4a1.34,1.34,0,1,1,1.34-1.34A1.34,1.34,0,0,1,17.84,17.69Z"/></g></g></svg>