<svg xmlns="http://www.w3.org/2000/svg" width="17" height="19" viewBox="0 0 16.57 18.13"><defs><style>.cls-1{fill:#000103;}</style></defs><title>change</title><g id="Слой_2" data-name="Слой 2"><g id="Слой_1-2" data-name="Слой 1"><path class="cls-1" d="M3.37,3.59a7.23,7.23,0,0,1,9.39-.25l-2.15.08a.5.5,0,0,0,0,1h0L14,4.31a.5.5,0,0,0,.48-.5V3.75h0L14.32.48a.5.5,0,0,0-1,0l.08,2A8.22,8.22,0,0,0,2.7,2.85a8.22,8.22,0,0,0-2.47,8,.5.5,0,0,0,.48.38H.84a.5.5,0,0,0,.37-.6A7.22,7.22,0,0,1,3.37,3.59Z"/><path class="cls-1" d="M16.34,7.24a.5.5,0,1,0-1,.24A7.22,7.22,0,0,1,3.74,14.73l2.18-.2a.5.5,0,1,0-.09-1l-3.29.3a.5.5,0,0,0-.45.54l.3,3.29a.5.5,0,0,0,.5.46h0a.5.5,0,0,0,.45-.54l-.18-2a8.16,8.16,0,0,0,4.75,1.81h.42a8.22,8.22,0,0,0,8-10.16Z"/></g></g></svg>