<svg xmlns="http://www.w3.org/2000/svg" width="19" height="17" viewBox="0 0 19.84 19.01"><defs><style>.cls-1{fill:#ffffff;}</style></defs><title>message</title><g id="Слой_2" data-name="Слой 2"><g id="Слой_1-2" data-name="Слой 1"><path class="cls-1" d="M10.23,6.49a.78.78,0,0,0-.55,1.34.75.75,0,0,0,.55.23.79.79,0,0,0,0-1.58Z"/><path class="cls-1" d="M13.16,6.49a.78.78,0,0,0-.55,1.34.74.74,0,0,0,.55.23.79.79,0,0,0,0-1.58Z"/><path class="cls-1" d="M7.31,6.49a.78.78,0,0,0-.55,1.34.75.75,0,0,0,.55.23.79.79,0,0,0,0-1.58Z"/><path class="cls-1" d="M17.28,0,6.9,0H2.56A2.56,2.56,0,0,0,0,2.59v9.12a2.56,2.56,0,0,0,2.56,2.56H5.18v4.31a.43.43,0,0,0,.75.29l4.18-4.6,7.17,0a2.56,2.56,0,0,0,2.56-2.56V2.56A2.56,2.56,0,0,0,17.28,0Zm1.54,10.46v1.16a1.57,1.57,0,0,1-1.68,1.56l-7.36,0a.43.43,0,0,0-.32.14L6,17.22l0-3.55a.48.48,0,0,0-.45-.47l-3.18,0A1.43,1.43,0,0,1,1,11.83V2.72A1.44,1.44,0,0,1,2.56,1.16H6.47v0l10.81,0c.93,0,1.54.45,1.54,1.38Z"/></g></g></svg>