<svg xmlns="http://www.w3.org/2000/svg" width="35" height="35" viewBox="0 0 25.85 23.73"><defs><style>.cls-1{fill:#6354f4;}</style></defs><title>chat</title><g id="Слой_2" data-name="Слой 2"><g id="Слой_1-2" data-name="Слой 1"><path class="cls-1" d="M10.22,12.8a.8.8,0,1,0-.55-.23A.75.75,0,0,0,10.22,12.8Z"/><path class="cls-1" d="M13.15,12.8a.8.8,0,1,0-.55-.23A.74.74,0,0,0,13.15,12.8Z"/><path class="cls-1" d="M7.3,12.8a.8.8,0,1,0-.55-.23A.75.75,0,0,0,7.3,12.8Z"/><path class="cls-1" d="M23.3,0,8.59,0A2.56,2.56,0,0,0,6,2.56V4.76H2.56A2.56,2.56,0,0,0,0,7.33v9.11A2.56,2.56,0,0,0,2.56,19H5.17V23.3a.43.43,0,0,0,.75.29L10.1,19l7.16,0a2.56,2.56,0,0,0,2.56-2.55v0l2.27,2.49a.43.43,0,0,0,.75-.29V14.25h.46a2.56,2.56,0,0,0,2.56-2.55V2.59A2.56,2.56,0,0,0,23.3,0ZM19,16.4a1.7,1.7,0,0,1-1.7,1.69l-7.36,0a.43.43,0,0,0-.32.14L6,22.18V18.56a.43.43,0,0,0-.43-.43h-3A1.7,1.7,0,0,1,.86,16.43V7.33A1.7,1.7,0,0,1,2.56,5.63H6.46l10.8,0A1.7,1.7,0,0,1,19,7.29V16.4Zm6-4.71a1.69,1.69,0,0,1-1.69,1.69h-.89a.43.43,0,0,0-.43.43v3.63l-2.15-2.37V7.3a2.56,2.56,0,0,0-2.56-2.56l-10.37,0V2.55A1.7,1.7,0,0,1,8.59.86L23.3.89h0A1.7,1.7,0,0,1,25,2.58v9.11Z"/></g></g></svg>