<svg xmlns="http://www.w3.org/2000/svg" fill="#a0a5aa" width="19" height="21" viewBox="0 0 17.11 18.98"><title>clip</title><g id="Слой_2" data-name="Слой 2"><g id="Слой_1-2" data-name="Слой 1"><path d="M15.91,11.7l-1.4-1.4L8.19,4A3,3,0,0,0,4,8.19l6.32,6.32a.66.66,0,0,0,.94-.94L4.91,7.25A1.65,1.65,0,0,1,7.25,4.91l6.32,6.32,1.4,1.4a3,3,0,1,1-4.21,4.21L9.59,15.68,3,9.13l-.47-.47A4.3,4.3,0,0,1,8.66,2.57l7,7a.66.66,0,1,0,.94-.94l-7-7a5.63,5.63,0,0,0-8,8l7,7,1.17,1.17a4.3,4.3,0,0,0,6.08-6.08Z"/></g></g></svg>