<svg xmlns="http://www.w3.org/2000/svg" width="18" height="18" viewBox="0 0 19.09 19.09"><defs><style>.cls-1{fill:#000103;}</style></defs><title>clock</title><g id="Слой_2" data-name="Слой 2"><g id="Слой_1-2" data-name="Слой 1"><path class="cls-1" d="M9.55,0a9.55,9.55,0,1,0,9.55,9.55A9.55,9.55,0,0,0,9.55,0Zm0,18A8.5,8.5,0,1,1,18,9.55,8.5,8.5,0,0,1,9.55,18Z"/><path class="cls-1" d="M14.83,9.69h-4.7V3.92a.61.61,0,0,0-1.22,0v6.31s0,0,0,0,0,0,0,0a.61.61,0,0,0,.61.61h5.31a.61.61,0,1,0,0-1.22Z"/></g></g></svg>