<svg xmlns="http://www.w3.org/2000/svg" width="16" height="19" viewBox="0 0 15.53 19.12"><title>delete</title><g id="Слой_2" data-name="Слой 2"><g id="Слой_1-2" data-name="Слой 1"><path d="M9.65,16.28a.45.45,0,0,0,.45-.45V7.37a.45.45,0,0,0-.9,0v8.46A.45.45,0,0,0,9.65,16.28Z"/><path d="M5.88,16.28a.45.45,0,0,0,.45-.45V7.37a.45.45,0,0,0-.9,0v8.46A.45.45,0,0,0,5.88,16.28Z"/><path d="M15.51,3.82a1.71,1.71,0,0,0-1.7-1.49H11.52V1.77A1.76,1.76,0,0,0,9.75,0h-4A1.76,1.76,0,0,0,4,1.77v.56H1.71a1.71,1.71,0,0,0-.44,3.36l.76,11a2.47,2.47,0,0,0,.66,1.7,2.2,2.2,0,0,0,1.6.69h7a2.2,2.2,0,0,0,1.6-.69,2.47,2.47,0,0,0,.66-1.7l.76-11A1.71,1.71,0,0,0,15.51,3.82ZM4.9,1.77A.86.86,0,0,1,5.78.9h4a.86.86,0,0,1,.88.87v.56H4.9Zm7.7,15a1.42,1.42,0,0,1-1.36,1.5h-7a1.42,1.42,0,0,1-1.36-1.5l-.76-11H13.36ZM13.82,4.84H1.71a.81.81,0,1,1,0-1.61H13.82a.81.81,0,0,1,0,1.61Z"/></g></g></svg>