<svg xmlns="http://www.w3.org/2000/svg" width="18" height="17" viewBox="0 0 21.01 19.01"><defs><style>.cls-1{fill:#000103;}</style></defs><title>delivery</title><g id="Слой_2" data-name="Слой 2"><g id="Слой_1-2" data-name="Слой 1"><path class="cls-1" d="M19.35,0H1.66A1.66,1.66,0,0,0,0,1.66V6H1V16.32A2.69,2.69,0,0,0,3.69,19H17.32A2.69,2.69,0,0,0,20,16.32V6h1V1.66A1.66,1.66,0,0,0,19.35,0ZM8.69,6V1.19h3.62V8.81H8.69ZM1.19,4.81V1.69a.5.5,0,0,1,.5-.5H7.5V4.81ZM18.81,16.35a1.47,1.47,0,0,1-1.47,1.47H3.66a1.47,1.47,0,0,1-1.47-1.47V6H7.5v4h6V6h5.31ZM13.51,4.81V1.19h5.81a.5.5,0,0,1,.5.5V4.81Z"/></g></g></svg>