<svg xmlns="http://www.w3.org/2000/svg" width="16" height="22" viewBox="0 0 19.13 19.14"><defs><style>.cls-1{fill:#000103;}</style></defs><title>edit</title><g id="Слой_2" data-name="Слой 2"><g id="Слой_1-2" data-name="Слой 1"><path class="cls-1" d="M17.51.86a2.94,2.94,0,0,0-4.15,0L1.72,12.5a.65.65,0,0,0-.17.29L0,18.31a.65.65,0,0,0,.8.8l5.52-1.53a.65.65,0,0,0,.29-.17L18.28,5.78a2.94,2.94,0,0,0,0-4.15ZM3.14,12.92,12.67,3.4l3.07,3.07L6.21,16Zm-.61,1.23L5,16.61l-3.39.94Zm14.82-9.3-.69.69L13.59,2.47l.69-.69a1.63,1.63,0,0,1,2.31,0l.77.77A1.63,1.63,0,0,1,17.35,4.85Z"/></g></g></svg>