<svg xmlns="http://www.w3.org/2000/svg" width="22" height="22" viewBox="0 0 19.09 19.09"><defs><style>.cls-1{fill:#3c5996;}</style></defs><title>facebook</title><g id="Слой_2" data-name="Слой 2"><g id="Слой_1-2" data-name="Слой 1"><path class="cls-1" d="M16.52,0H2.57A2.57,2.57,0,0,0,0,2.57V16.52a2.57,2.57,0,0,0,2.57,2.57H9.45V12.27H7.69a.42.42,0,0,1-.42-.42V9.65a.42.42,0,0,1,.42-.42H9.45V7.11A3.47,3.47,0,0,1,13.16,3.3H15a.42.42,0,0,1,.42.42V5.57A.42.42,0,0,1,15,6H13.85c-1.2,0-1.43.57-1.43,1.4V9.23h2.63a.42.42,0,0,1,.42.47l-.26,2.2a.42.42,0,0,1-.42.37H12.44v6.82h4.09a2.57,2.57,0,0,0,2.57-2.57V2.57A2.57,2.57,0,0,0,16.52,0Z"/></g></g></svg>