<svg xmlns="http://www.w3.org/2000/svg" width="12" height="21" viewBox="0 0 10.32 19.09"><defs><style>.cls-1{fill:#000103;}</style></defs><title>facebook_footer</title><g id="Слой_2" data-name="Слой 2"><g id="Слой_1-2" data-name="Слой 1"><path class="cls-1" d="M9.93,0H7.46A4.35,4.35,0,0,0,2.88,4.7V6.86H.39A.39.39,0,0,0,0,7.25v3.14a.39.39,0,0,0,.39.39H2.88V18.7a.39.39,0,0,0,.39.39H6.52a.39.39,0,0,0,.39-.39V10.78H9.81a.39.39,0,0,0,.39-.39V7.25a.39.39,0,0,0-.39-.39H6.9V5c0-.88.21-1.33,1.36-1.33H9.93a.39.39,0,0,0,.39-.39V.39A.39.39,0,0,0,9.93,0Z"/></g></g></svg>