<svg xmlns="http://www.w3.org/2000/svg" width="20" height="22" viewBox="0 0 19.09 19.09"><defs><style>.cls-1{fill:#fbbb00;}.cls-2{fill:#518ef8;}.cls-3{fill:#28b446;}.cls-4{fill:#f14336;}</style></defs><title>google</title><g id="Слой_2" data-name="Слой 2"><g id="Слой_1-2" data-name="Слой 1"><path class="cls-1" d="M4.23,11.54,3.57,14l-2.43.05a9.56,9.56,0,0,1-.07-8.91h0l2.16.4L4.18,7.7a5.7,5.7,0,0,0,.05,3.84Z"/><path class="cls-2" d="M18.92,7.76A9.54,9.54,0,0,1,15.52,17h0l-2.72-.14-.39-2.41a5.69,5.69,0,0,0,2.45-2.91H9.76V7.76h9.17Z"/><path class="cls-3" d="M15.52,17h0A9.55,9.55,0,0,1,1.14,14.07l3.09-2.53a5.68,5.68,0,0,0,8.18,2.91Z"/><path class="cls-4" d="M15.64,2.2,12.55,4.73a5.68,5.68,0,0,0-8.37,3L1.07,5.16h0a9.55,9.55,0,0,1,14.57-3Z"/></g></g></svg>