<svg xmlns="http://www.w3.org/2000/svg" width="18" height="16" viewBox="0 0 21.36 19.01"><defs><style>.cls-1{fill:#000103;}</style></defs><title>heart</title><g id="Слой_2" data-name="Слой 2"><g id="Слой_1-2" data-name="Слой 1"><path class="cls-1" d="M10.68,19a1.25,1.25,0,0,1-.83-.31c-.86-.75-1.7-1.46-2.43-2.09h0a45.18,45.18,0,0,1-5.3-5A8,8,0,0,1,0,6.42,6.68,6.68,0,0,1,1.69,1.86,5.74,5.74,0,0,1,6,0,5.37,5.37,0,0,1,9.32,1.16a6.87,6.87,0,0,1,1.36,1.42A6.87,6.87,0,0,1,12,1.16,5.37,5.37,0,0,1,15.4,0a5.74,5.74,0,0,1,4.27,1.86,6.68,6.68,0,0,1,1.69,4.56,8,8,0,0,1-2.12,5.2,45.17,45.17,0,0,1-5.3,5c-.74.63-1.57,1.34-2.43,2.09A1.25,1.25,0,0,1,10.68,19ZM6,1.25A4.51,4.51,0,0,0,2.61,2.71,5.43,5.43,0,0,0,1.25,6.42a6.69,6.69,0,0,0,1.83,4.41,44.46,44.46,0,0,0,5.15,4.82h0c.74.63,1.57,1.34,2.44,2.1.87-.76,1.71-1.47,2.45-2.1a44.47,44.47,0,0,0,5.15-4.82,6.69,6.69,0,0,0,1.83-4.41,5.43,5.43,0,0,0-1.36-3.71A4.51,4.51,0,0,0,15.4,1.25a4.15,4.15,0,0,0-2.59.9,6.07,6.07,0,0,0-1.44,1.67.79.79,0,0,1-1.36,0A6.07,6.07,0,0,0,8.56,2.15,4.15,4.15,0,0,0,6,1.25Z"/></g></g></svg>