<svg xmlns="http://www.w3.org/2000/svg" width="18" height="16" viewBox="0 0 21.36 19.01">
    <defs><style>.cls-1{fill:#f871a2;}</style></defs>
    <title>heart_filled</title>
    <g id="Слой_2" data-name="Слой 2"><g id="Слой_1-2" data-name="Слой 1">
    <path class="cls-1" d="M10.68,19a1.25,1.25,0,0,1-.83-.31c-.86-.75-1.7-1.46-2.43-2.09h0a45.18,45.18,0,0,1-5.3-5A8,8,0,0,1,0,6.42,6.68,6.68,0,0,1,1.69,1.86,5.74,5.74,0,0,1,6,0,5.37,5.37,0,0,1,9.32,1.16a6.87,6.87,0,0,1,1.36,1.42A6.87,6.87,0,0,1,12,1.16,5.37,5.37,0,0,1,15.4,0a5.74,5.74,0,0,1,4.27,1.86,6.68,6.68,0,0,1,1.69,4.56,8,8,0,0,1-2.12,5.2,45.17,45.17,0,0,1-5.3,5c-.74.63-1.57,1.34-2.43,2.09A1.25,1.25,0,0,1,10.68,19Z"/>
</g></g></svg>