<svg xmlns="http://www.w3.org/2000/svg" width="18" height="13" viewBox="0 0 17.04 13.27"><defs><style>.cls-1{fill:#a0a5aa;}</style></defs><title>hyde</title><g id="Слой_2" data-name="Слой 2"><g id="Слой_1-2" data-name="Слой 1"><path class="cls-1" d="M8.52,4.39h.07l1-1a3.32,3.32,0,0,0-1-.18A3.37,3.37,0,0,0,5.15,6.63a3.32,3.32,0,0,0,.18,1l1-1s0,0,0-.07A2.25,2.25,0,0,1,8.52,4.39Z"/><path class="cls-1" d="M8.52,8.88H8.45l-1,1a3.32,3.32,0,0,0,1,.18,3.37,3.37,0,0,0,3.37-3.37,3.32,3.32,0,0,0-.18-1l-1,1s0,0,0,.07A2.25,2.25,0,0,1,8.52,8.88Z"/><path class="cls-1" d="M16.93,6.3a16.34,16.34,0,0,0-2.95-3l-.81.81a15.88,15.88,0,0,1,2.58,2.48c-.87,1.06-3.82,4.31-7.24,4.31a6,6,0,0,1-1.83-.3l-.88.88a7.42,7.42,0,0,0,2.71.55c4.63,0,8.26-4.89,8.41-5.1A.56.56,0,0,0,16.93,6.3Z"/><path class="cls-1" d="M3.86,9.12A15.88,15.88,0,0,1,1.28,6.63C2.15,5.57,5.1,2.33,8.52,2.33a6,6,0,0,1,1.83.3l.88-.88A7.42,7.42,0,0,0,8.52,1.2C3.89,1.2.26,6.09.11,6.3A.56.56,0,0,0,.11,7a16.34,16.34,0,0,0,2.95,3Z"/><path class="cls-1" d="M15,.15a.53.53,0,0,0-.74,0L2,12.37a.53.53,0,1,0,.74.74L15,.9A.53.53,0,0,0,15,.15Z"/></g></g></svg>