<svg width="21" height="21" viewBox="0 0 21 21" fill="none" xmlns="http://www.w3.org/2000/svg">
<path d="M1 1H3.375L6.7 12.6923C6.85833 13.5043 7.46 15.1282 8.6 15.1282H18.1M4.8 4.89744H20L19.05 11.7179L7.175 13.1795M10.975 18.0513C10.975 19.1275 10.1243 20 9.075 20C8.02566 20 7.175 19.1275 7.175 18.0513C7.175 16.975 8.02566 16.1026 9.075 16.1026C10.1243 16.1026 10.975 16.975 10.975 18.0513ZM18.575 18.0513C18.575 19.1275 17.7243 20 16.675 20C15.6257 20 14.775 19.1275 14.775 18.0513C14.775 16.975 15.6257 16.1026 16.675 16.1026C17.7243 16.1026 18.575 16.975 18.575 18.0513Z" stroke="#242424" stroke-linecap="round" stroke-linejoin="round"/>
</svg>
