<svg xmlns="http://www.w3.org/2000/svg" width="21" height="21" viewBox="0 0 19.15 19.15"><defs><style>.cls-1{fill:#000103;}</style></defs><title>instagram_footer</title><g id="Слой_2" data-name="Слой 2"><g id="Слой_1-2" data-name="Слой 1"><path class="cls-1" d="M16.35,0H2.81A2.81,2.81,0,0,0,0,2.81V16.35a2.81,2.81,0,0,0,2.81,2.81H16.35a2.81,2.81,0,0,0,2.81-2.81V2.81A2.81,2.81,0,0,0,16.35,0ZM9.61,14.59a5,5,0,1,1,5-5A5.06,5.06,0,0,1,9.61,14.59Zm5.61-9a1.68,1.68,0,1,1,1.68-1.68A1.69,1.69,0,0,1,15.22,5.61Z"/><path class="cls-1" d="M15.22,3.37a.56.56,0,1,0,.56.56A.56.56,0,0,0,15.22,3.37Z"/><path class="cls-1" d="M9.61,5.61a3.93,3.93,0,1,0,3.93,3.93A3.93,3.93,0,0,0,9.61,5.61Z"/></g></g></svg>