<svg xmlns="http://www.w3.org/2000/svg" xmlns:xlink="http://www.w3.org/1999/xlink" width="22" height="22" viewBox="0 0 19.09 19.09"><defs><style>.cls-1{fill:url(#Безымянный_градиент_3);}.cls-2{fill:url(#Безымянный_градиент_3-2);}.cls-3{fill:url(#Безымянный_градиент_3-3);}</style><linearGradient id="Безымянный_градиент_3" x1="9.55" y1="19.09" x2="9.55" gradientUnits="userSpaceOnUse"><stop offset="0" stop-color="#e09b3d"/><stop offset="0.3" stop-color="#c74c4d"/><stop offset="0.6" stop-color="#c21975"/><stop offset="1" stop-color="#7024c4"/></linearGradient><linearGradient id="Безымянный_градиент_3-2" x1="15.18" y1="4.47" x2="15.18" y2="3.36" xlink:href="#Безымянный_градиент_3"/><linearGradient id="Безымянный_градиент_3-3" x1="9.58" y1="13.42" x2="9.58" y2="5.59" xlink:href="#Безымянный_градиент_3"/></defs><title>instagram</title><g id="Слой_2" data-name="Слой 2"><g id="Слой_1-2" data-name="Слой 1"><path class="cls-1" d="M16.29,0H2.8A2.8,2.8,0,0,0,0,2.8v13.5a2.8,2.8,0,0,0,2.8,2.8h13.5a2.8,2.8,0,0,0,2.8-2.8V2.8A2.8,2.8,0,0,0,16.29,0ZM9.58,14.54a5,5,0,1,1,5-5A5,5,0,0,1,9.58,14.54Zm5.59-8.95a1.68,1.68,0,1,1,1.68-1.68A1.68,1.68,0,0,1,15.18,5.59Z"/><circle class="cls-2" cx="15.18" cy="3.92" r="0.56"/><circle class="cls-3" cx="9.58" cy="9.51" r="3.92"/></g></g></svg>