<svg xmlns="http://www.w3.org/2000/svg" viewBox="0 0 17.99 18.95"><defs><style>.cls-1{fill:#ffffff;}</style></defs><title>like_filled</title><g id="Слой_2" data-name="Слой 2"><g id="Слой_1-2" data-name="Слой 1"><path class="cls-1" d="M3.37,10.23H.65a.65.65,0,0,0-.65.65v7.25a.65.65,0,0,0,.65.65H3.37A.65.65,0,0,0,4,18.12V10.88A.65.65,0,0,0,3.37,10.23Z"/><path class="cls-1" d="M17.43,12.81a1.65,1.65,0,0,0,.56-1.2,1.69,1.69,0,0,0-.49-1,.6.6,0,0,1-.11-.78,1.28,1.28,0,0,0-.15-1.63c-.85-.78-3-.69-4.34-.39h-.06L12.06,8a1,1,0,0,1-1-.17c-.59-.53-.6-1.71.15-4,.49-1.49.51-2.61.05-3.24A1.77,1.77,0,0,0,9.64,0c-.17.12-.21.45-.22,1.06,0,.1,0,.44,0,.54C9.39,2,7.65,7.22,5.65,8.8a3.26,3.26,0,0,0-.74,1.5c0,.29,0,.39,0,.58v7.25a1.89,1.89,0,0,1,0,.39l.45.05h0a44,44,0,0,0,5.79.32h.06a11.74,11.74,0,0,0,3.25-.1,2.79,2.79,0,0,0,2-1.13,1.57,1.57,0,0,0,.12-1.15.61.61,0,0,1,.2-.69,1.78,1.78,0,0,0,.84-1.54,1.85,1.85,0,0,0-.2-.74A.6.6,0,0,1,17.43,12.81Z"/></g></g></svg>