<svg xmlns="http://www.w3.org/2000/svg" width="21" height="20" viewBox="0 0 18.24 18.77"><defs><style>.cls-1{fill:#02ad5e;}</style></defs><title>like</title><g id="Слой_2" data-name="Слой 2"><g id="Слой_1-2" data-name="Слой 1"><path class="cls-1" d="M17.69,12.76a2.33,2.33,0,0,0,.55-1.56,2.39,2.39,0,0,0-.51-1.35,2.1,2.1,0,0,0-.5-2.41,4.33,4.33,0,0,0-3.15-.75,12.32,12.32,0,0,0-1.93.25h0l-.62.13A6.85,6.85,0,0,1,12,4.78c.55-1.67.52-3-.1-3.81a2.49,2.49,0,0,0-2-1,1,1,0,0,0-.76.35,2.64,2.64,0,0,0-.33,1.87C8.32,3.61,6.86,7,5.64,8L5.57,8A4.21,4.21,0,0,0,4.8,9.17,1.62,1.62,0,0,0,4,9H1.63A1.63,1.63,0,0,0,0,10.6V17a1.63,1.63,0,0,0,1.63,1.63H4a1.63,1.63,0,0,0,.94-.3l.92.11a39.51,39.51,0,0,0,5.23.29c.47,0,.91.05,1.31.05a8.81,8.81,0,0,0,1.82-.16,3.41,3.41,0,0,0,2.44-1.51,2.4,2.4,0,0,0,.27-1.5,2.5,2.5,0,0,0,.89-2A2.65,2.65,0,0,0,17.69,12.76ZM4.6,17a.57.57,0,0,1-.57.57H1.63A.57.57,0,0,1,1.06,17V10.6A.57.57,0,0,1,1.63,10H4a.57.57,0,0,1,.57.57ZM16.69,12.3a.53.53,0,0,0-.07.64,1.63,1.63,0,0,1,.18.66A1.57,1.57,0,0,1,16.06,15a.53.53,0,0,0-.18.6,1.39,1.39,0,0,1-.11,1,2.45,2.45,0,0,1-1.73,1,10.34,10.34,0,0,1-2.86.09h-.05A38.75,38.75,0,0,1,6,17.37H6l-.4,0a1.66,1.66,0,0,0,0-.35V10.6a1.66,1.66,0,0,0-.07-.49,3.28,3.28,0,0,1,.73-1.35C8.08,7.37,9.8,2.66,9.87,2.45a.5.5,0,0,0,0-.26,2.45,2.45,0,0,1,.05-1.14,1.41,1.41,0,0,1,1.11.53c.4.55.38,1.54,0,2.85-.66,2-.71,3-.19,3.51a.86.86,0,0,0,.86.15L12.35,8h.05c1.2-.26,3.36-.42,4.11.26a1.13,1.13,0,0,1,.13,1.43.52.52,0,0,0,.09.68,1.49,1.49,0,0,1,.44.91A1.46,1.46,0,0,1,16.69,12.3Z"/></g></g></svg>