<svg xmlns="http://www.w3.org/2000/svg" width="18" height="20" viewBox="0 0 18.71 21.49"><defs><style>.cls-1{fill:#6354f4;}</style></defs><title>login_2</title><g id="Слой_2" data-name="Слой 2"><g id="Слой_1-2" data-name="Слой 1"><path class="cls-1" d="M16.78,0l-.2,0-.1,0H5.73A2.24,2.24,0,0,0,3.49,2.24V6.72a.45.45,0,0,0,.9,0V2.24A1.34,1.34,0,0,1,5.73.9h8.56L10.93,2.34A1.93,1.93,0,0,0,9.76,4.11V17.91h-4a1.86,1.86,0,0,1-1.32-.63l0-5.19a.45.45,0,0,0-.45-.45h0a.45.45,0,0,0-.45.45l0,5.22a.84.84,0,0,0,.28.63,2.76,2.76,0,0,0,1.94.87h4v.75a1.93,1.93,0,0,0,2.69,1.78l5.09-2.18a1.93,1.93,0,0,0,1.17-1.78V1.93A1.94,1.94,0,0,0,16.78,0Zm1,17.38a1,1,0,0,1-.63,1L12.1,20.51a1,1,0,0,1-.41.08,1,1,0,0,1-1-1V4.11a1,1,0,0,1,.63-1L16.37,1A1,1,0,0,1,16.78.9a1,1,0,0,1,1,1Z"/><path class="cls-1" d="M12,9.85a.45.45,0,0,0-.45.45v1.79a.45.45,0,1,0,.9,0V10.3A.45.45,0,0,0,12,9.85Z"/><path class="cls-1" d="M6,11.2a.49.49,0,0,0,.74.63L8.55,9.71h0V9.46h0a.28.28,0,0,0,0-.09h0V9.11h0L6.76,7A.48.48,0,1,0,6,7.61L7.13,8.93H.48a.48.48,0,1,0,0,1H7.13Z"/></g></g></svg>