<svg xmlns="http://www.w3.org/2000/svg" viewBox="0 0 16.3 19"><defs><style>.cls-1{fill:#000103;}</style></defs><title>login</title><g id="Слой_2" data-name="Слой 2"><g id="Слой_1-2" data-name="Слой 1"><path class="cls-1" d="M13.4,0H6.46A2.91,2.91,0,0,0,3.57,2.92V4.61a.59.59,0,1,0,1.19,0V2.93A1.71,1.71,0,0,1,6.46,1.2h6.95a1.72,1.72,0,0,1,1.7,1.73V16.07a1.71,1.71,0,0,1-1.7,1.73H6.46a1.72,1.72,0,0,1-1.7-1.73V14.41a.59.59,0,0,0-1.19,0v1.66A2.91,2.91,0,0,0,6.46,19h6.95a2.91,2.91,0,0,0,2.89-2.92V2.93A2.91,2.91,0,0,0,13.4,0Z"/><path class="cls-1" d="M7,11.7a.6.6,0,0,0,.91.77l2.2-2.6,0,0,0,0v0l0,0V9.66s0,0,0,0v0s0,0,0,0v0a.35.35,0,0,0,0-.11v0s0,0,0,0v0s0,0,0,0V9.21l0,0v0l0,0,0,0-2.2-2.6A.6.6,0,1,0,7,7.29L8.39,8.91H.59a.59.59,0,1,0,0,1.19h7.8Z"/></g></g></svg>