<svg width="16" height="13" viewBox="0 0 16 13" fill="none" xmlns="http://www.w3.org/2000/svg">
<path d="M15.0446 1.55518L10.1045 6.49152L15.0529 10.4435V1.66643C15.0529 1.62849 15.0497 1.59147 15.0446 1.55518Z" fill="#8C96BF" stroke="white" stroke-width="0.6"/>
<path d="M9.65898 6.93701L9.03623 7.55928C8.74367 7.85162 8.38505 7.9978 8.02646 7.9978C7.66786 7.9978 7.30921 7.85162 7.01668 7.55928L6.39394 6.93701L1 11.2447V11.3335C1 11.7011 1.24925 12.0002 1.55558 12.0002H14.4972C14.8036 12.0002 15.0528 11.7011 15.0528 11.3335V11.2447L9.65898 6.93701Z" fill="#8C96BF" stroke="white" stroke-width="0.6"/>
<path d="M14.4994 1C14.4987 1 14.498 1 14.4973 1H1.55565C1.55496 1 1.5543 1 1.55362 1C1.47517 1.00036 1.44122 1.12028 1.5015 1.18052L6.5869 6.26208C6.5875 6.26267 6.58811 6.2633 6.58871 6.26389L7.37224 7.04682C7.75134 7.42566 8.30168 7.42566 8.68078 7.04682L14.5515 1.18052C14.6118 1.12025 14.5778 1.00033 14.4994 1Z" fill="#8C96BF" stroke="white" stroke-width="0.6"/>
<path d="M1.00837 1.55518C1.00327 1.59147 1 1.62843 1 1.66643V10.4435L5.94844 6.49148L1.00837 1.55518Z" fill="#8C96BF" stroke="white" stroke-width="0.6"/>
</svg>
