<svg xmlns="http://www.w3.org/2000/svg" width="21" height="21" viewBox="0 0 19.09 19.09"><defs><style>.cls-1{fill:#2196f3;}</style></defs><title>messanger</title><g id="Слой_2" data-name="Слой 2"><g id="Слой_1-2" data-name="Слой 1"><path class="cls-1" d="M9.55,0A9.36,9.36,0,0,0,0,9.15,9,9,0,0,0,3.18,16v2.74a.4.4,0,0,0,.61.34L6,17.65a9.85,9.85,0,0,0,3.54.65,9.36,9.36,0,0,0,9.55-9.15A9.36,9.36,0,0,0,9.55,0Zm6.25,7L11,11.82a.4.4,0,0,1-.54,0L7.91,9.63,3.77,11.88a.4.4,0,0,1-.47-.63L8.07,6.48a.4.4,0,0,1,.54,0l2.57,2.21,4.14-2.26a.4.4,0,0,1,.47.63Z"/></g></g></svg>