<svg width="152" height="36" viewBox="0 0 152 36" fill="none" xmlns="http://www.w3.org/2000/svg">
<path d="M0 0H152V31C152 33.7614 149.761 36 147 36H5C2.23858 36 0 33.7614 0 31V0Z" fill="white"/>
<g clip-path="url(#clip0)">
<path d="M71.7219 13.8362C72.0295 13.7521 72.3472 13.7105 72.6662 13.7127C73.3394 13.6783 74.0125 13.7828 74.6432 14.0194C75.274 14.2561 75.8488 14.6199 76.3315 15.0881C76.7849 15.5387 77.143 16.0751 77.3847 16.6657C77.6264 17.2562 77.7467 17.889 77.7386 18.5266C77.7425 19.8035 77.2467 21.0319 76.3563 21.9515C75.8723 22.4257 75.294 22.7941 74.6585 23.0331C74.0231 23.2721 73.3445 23.3764 72.6662 23.3392C71.9886 23.3692 71.312 23.2616 70.6776 23.023C70.0432 22.7845 69.4643 22.4199 68.976 21.9515C68.0968 21.0217 67.603 19.7958 67.5938 18.5192V9.93716C67.5938 8.64572 68.2807 8 69.6547 8C71.0287 8 71.7095 8.64572 71.6971 9.93716L71.7219 13.8362ZM72.6724 16.3598C72.4834 16.3756 72.3024 16.4429 72.1493 16.5541C71.9961 16.6654 71.8766 16.8164 71.8038 16.9907C71.5659 17.4681 71.4421 17.9937 71.4421 18.5266C71.4421 19.0594 71.5659 19.5851 71.8038 20.0625C71.8765 20.2368 71.9959 20.3879 72.1491 20.4992C72.3023 20.6105 72.4834 20.6776 72.6724 20.6934C72.8597 20.6772 73.0389 20.6097 73.1901 20.4983C73.3412 20.387 73.4584 20.2361 73.5285 20.0625C73.7643 19.5844 73.8868 19.059 73.8868 18.5266C73.8868 17.9941 73.7643 17.4687 73.5285 16.9907C73.4587 16.8151 73.341 16.6624 73.1886 16.5499C73.0362 16.4373 72.8553 16.3693 72.6662 16.3536L72.6724 16.3598Z" fill="#6354F4"/>
<path d="M84.8199 22.6304C84.5122 23.1053 83.838 23.3432 82.7974 23.344C82.2143 23.3355 81.6391 23.2074 81.108 22.9678C80.5768 22.7282 80.101 22.3821 79.7103 21.9513C78.8236 21.0164 78.3292 19.7798 78.328 18.4943C78.3162 17.8736 78.4273 17.2567 78.6551 16.6788C78.883 16.1008 79.223 15.5732 79.6558 15.1261C80.0886 14.6789 80.6056 14.321 81.1775 14.0728C81.7493 13.8245 82.3647 13.6908 82.9885 13.6792C83.1262 13.6792 83.2627 13.6792 83.4004 13.6903C84.0776 13.6566 84.7544 13.7625 85.3884 14.0016C86.0224 14.2406 86.5998 14.6075 87.0844 15.0793C87.9678 15.9994 88.4626 17.2218 88.4667 18.4943V23.0748H84.8199V22.6304ZM83.3806 16.3213C83.1916 16.3372 83.0107 16.4045 82.8575 16.5157C82.7043 16.627 82.5848 16.778 82.512 16.9522C82.2739 17.4298 82.15 17.9557 82.15 18.4888C82.15 19.0219 82.2739 19.5477 82.512 20.0253C82.5848 20.1995 82.7043 20.3505 82.8575 20.4618C83.0107 20.5731 83.1916 20.6403 83.3806 20.6562C83.5678 20.6395 83.7467 20.5718 83.8978 20.4605C84.0488 20.3492 84.1661 20.1986 84.2367 20.0253C84.4719 19.5468 84.5941 19.0213 84.5941 18.4888C84.5941 17.9562 84.4719 17.4307 84.2367 16.9522C84.1612 16.7839 84.041 16.6392 83.8891 16.5337C83.7372 16.4282 83.5592 16.3659 83.3744 16.3534L83.3806 16.3213Z" fill="#6354F4"/>
<path d="M90.9592 23.0913C89.6911 23.0913 89.057 22.6159 89.057 21.6653C89.0921 21.2367 89.231 20.8229 89.4617 20.4593C89.6925 20.0957 90.0083 19.7932 90.3822 19.5775L93.5078 17.1798H90.9716C89.6737 17.1798 89.0227 16.6448 89.0186 15.5748C89.0144 14.5047 89.6654 13.9697 90.9716 13.9697H97.2179C98.486 13.9697 99.12 14.4636 99.12 15.4513C99.12 16.1238 98.6973 16.7884 97.8519 17.4453L94.6816 19.8738H97.2179C98.5149 19.8738 99.1634 20.4121 99.1634 21.4887C99.1634 22.5653 98.5149 23.1003 97.2179 23.0937L90.9592 23.0913Z" fill="#6354F4"/>
<path d="M106.227 22.6304C105.918 23.1053 105.244 23.3432 104.205 23.344C103.622 23.3355 103.046 23.2074 102.515 22.9678C101.984 22.7282 101.507 22.3822 101.117 21.9513C100.231 21.0158 99.7365 19.7796 99.7343 18.4943C99.7224 17.8735 99.8336 17.2565 100.062 16.6785C100.289 16.1005 100.63 15.5728 101.062 15.1257C101.495 14.6785 102.013 14.3206 102.585 14.0724C103.157 13.8242 103.772 13.6906 104.396 13.6792C104.532 13.6792 104.67 13.6792 104.807 13.6903C105.483 13.6546 106.159 13.7583 106.793 13.995C107.427 14.2316 108.005 14.5962 108.491 15.0657C109.378 15.9889 109.873 17.217 109.873 18.4943V23.0748H106.244L106.227 22.6304ZM104.788 16.3213C104.599 16.3369 104.418 16.4041 104.265 16.5154C104.111 16.6267 103.992 16.7778 103.919 16.9522C103.681 17.4298 103.557 17.9557 103.557 18.4888C103.557 19.0219 103.681 19.5477 103.919 20.0253C103.977 20.2082 104.091 20.3682 104.247 20.4817C104.402 20.5953 104.589 20.6565 104.782 20.6565C104.974 20.6565 105.162 20.5953 105.317 20.4817C105.472 20.3682 105.587 20.2082 105.644 20.0253C105.879 19.5468 106.002 19.0213 106.002 18.4888C106.002 17.9562 105.879 17.4307 105.644 16.9522C105.569 16.7847 105.45 16.6405 105.299 16.5351C105.149 16.4296 104.972 16.3669 104.788 16.3534V16.3213Z" fill="#6354F4"/>
<path d="M116.931 22.6304C116.621 23.1053 115.947 23.3432 114.908 23.344C114.325 23.3355 113.749 23.2074 113.218 22.9678C112.687 22.7282 112.211 22.3822 111.82 21.9513C110.934 21.0158 110.44 19.7796 110.437 18.4943C110.426 17.8735 110.537 17.2565 110.765 16.6785C110.993 16.1005 111.333 15.5728 111.766 15.1257C112.199 14.6785 112.716 14.3206 113.288 14.0724C113.86 13.8242 114.475 13.6906 115.099 13.6792C115.236 13.6792 115.373 13.6792 115.51 13.6903C116.186 13.6546 116.862 13.7583 117.496 13.995C118.13 14.2316 118.708 14.5962 119.194 15.0657C120.081 15.9889 120.576 17.217 120.576 18.4943V23.0748H116.949L116.931 22.6304ZM115.491 16.3213C115.302 16.3369 115.121 16.4041 114.968 16.5154C114.815 16.6267 114.695 16.7778 114.623 16.9522C114.385 17.4298 114.261 17.9557 114.261 18.4888C114.261 19.0219 114.385 19.5477 114.623 20.0253C114.68 20.2082 114.795 20.3682 114.95 20.4817C115.105 20.5953 115.292 20.6565 115.485 20.6565C115.678 20.6565 115.865 20.5953 116.02 20.4817C116.175 20.3682 116.29 20.2082 116.347 20.0253C116.582 19.5468 116.705 19.0213 116.705 18.4888C116.705 17.9562 116.582 17.4307 116.347 16.9522C116.272 16.7847 116.153 16.6405 116.002 16.5351C115.852 16.4296 115.675 16.3669 115.491 16.3534V16.3213Z" fill="#6354F4"/>
<path d="M131 15.4078C130.976 16.5815 130.342 17.1684 129.098 17.1684H128.902C128.187 17.1556 127.479 17.0306 126.803 16.798C126.677 16.7619 126.547 16.7428 126.417 16.7412C125.901 16.7412 125.636 17.1807 125.624 18.0598V23.107H121.529V15.6399C121.529 14.3534 122.21 13.7101 123.57 13.7101C124.602 13.7101 125.236 14.0591 125.473 14.7571C126.377 13.9827 127.512 13.5258 128.702 13.457C130.235 13.457 131.001 14.1073 131 15.4078Z" fill="#6354F4"/>
<path d="M71.7219 13.8362C72.0295 13.7521 72.3472 13.7105 72.6662 13.7127C73.3394 13.6783 74.0125 13.7828 74.6432 14.0194C75.274 14.2561 75.8488 14.6199 76.3315 15.0881C76.7849 15.5387 77.143 16.0751 77.3847 16.6657C77.6264 17.2562 77.7467 17.889 77.7386 18.5266C77.7425 19.8035 77.2467 21.0319 76.3563 21.9515C75.8723 22.4257 75.294 22.7941 74.6585 23.0331C74.0231 23.2721 73.3445 23.3764 72.6662 23.3392C71.9886 23.3692 71.312 23.2616 70.6776 23.023C70.0432 22.7845 69.4643 22.4199 68.976 21.9515C68.0968 21.0217 67.603 19.7958 67.5938 18.5192V9.93716C67.5938 8.64572 68.2807 8 69.6547 8C71.0287 8 71.7095 8.64572 71.6971 9.93716L71.7219 13.8362ZM72.6724 16.3598C72.4834 16.3756 72.3024 16.4429 72.1493 16.5541C71.9961 16.6654 71.8766 16.8164 71.8038 16.9907C71.5659 17.4681 71.4421 17.9937 71.4421 18.5266C71.4421 19.0594 71.5659 19.5851 71.8038 20.0625C71.8765 20.2368 71.9959 20.3879 72.1491 20.4992C72.3023 20.6105 72.4834 20.6776 72.6724 20.6934C72.8597 20.6772 73.0389 20.6097 73.1901 20.4983C73.3412 20.387 73.4584 20.2361 73.5285 20.0625C73.7643 19.5844 73.8868 19.059 73.8868 18.5266C73.8868 17.9941 73.7643 17.4687 73.5285 16.9907C73.4587 16.8151 73.341 16.6624 73.1886 16.5499C73.0362 16.4373 72.8553 16.3693 72.6662 16.3536L72.6724 16.3598Z" fill="#6354F4"/>
<path d="M84.8199 22.6304C84.5122 23.1053 83.838 23.3432 82.7974 23.344C82.2143 23.3355 81.6391 23.2074 81.108 22.9678C80.5768 22.7282 80.101 22.3821 79.7103 21.9513C78.8236 21.0164 78.3292 19.7798 78.328 18.4943C78.3162 17.8736 78.4273 17.2567 78.6551 16.6788C78.883 16.1008 79.223 15.5732 79.6558 15.1261C80.0886 14.6789 80.6056 14.321 81.1775 14.0728C81.7493 13.8245 82.3647 13.6908 82.9885 13.6792C83.1262 13.6792 83.2627 13.6792 83.4004 13.6903C84.0776 13.6566 84.7544 13.7625 85.3884 14.0016C86.0224 14.2406 86.5998 14.6075 87.0844 15.0793C87.9678 15.9994 88.4626 17.2218 88.4667 18.4943V23.0748H84.8199V22.6304ZM83.3806 16.3213C83.1916 16.3372 83.0107 16.4045 82.8575 16.5157C82.7043 16.627 82.5848 16.778 82.512 16.9522C82.2739 17.4298 82.15 17.9557 82.15 18.4888C82.15 19.0219 82.2739 19.5477 82.512 20.0253C82.5848 20.1995 82.7043 20.3505 82.8575 20.4618C83.0107 20.5731 83.1916 20.6403 83.3806 20.6562C83.5678 20.6395 83.7467 20.5718 83.8978 20.4605C84.0488 20.3492 84.1661 20.1986 84.2367 20.0253C84.4719 19.5468 84.5941 19.0213 84.5941 18.4888C84.5941 17.9562 84.4719 17.4307 84.2367 16.9522C84.1612 16.7839 84.041 16.6392 83.8891 16.5337C83.7372 16.4282 83.5592 16.3659 83.3744 16.3534L83.3806 16.3213Z" fill="#6354F4"/>
<path d="M90.9592 23.0913C89.6911 23.0913 89.057 22.6159 89.057 21.6653C89.0921 21.2367 89.231 20.8229 89.4617 20.4593C89.6925 20.0957 90.0083 19.7932 90.3822 19.5775L93.5078 17.1798H90.9716C89.6737 17.1798 89.0227 16.6448 89.0186 15.5748C89.0144 14.5047 89.6654 13.9697 90.9716 13.9697H97.2179C98.486 13.9697 99.12 14.4636 99.12 15.4513C99.12 16.1238 98.6973 16.7884 97.8519 17.4453L94.6816 19.8738H97.2179C98.5149 19.8738 99.1634 20.4121 99.1634 21.4887C99.1634 22.5653 98.5149 23.1003 97.2179 23.0937L90.9592 23.0913Z" fill="#6354F4"/>
<path d="M106.227 22.6304C105.918 23.1053 105.244 23.3432 104.205 23.344C103.622 23.3355 103.046 23.2074 102.515 22.9678C101.984 22.7282 101.507 22.3822 101.117 21.9513C100.231 21.0158 99.7365 19.7796 99.7343 18.4943C99.7224 17.8735 99.8336 17.2565 100.062 16.6785C100.289 16.1005 100.63 15.5728 101.062 15.1257C101.495 14.6785 102.013 14.3206 102.585 14.0724C103.157 13.8242 103.772 13.6906 104.396 13.6792C104.532 13.6792 104.67 13.6792 104.807 13.6903C105.483 13.6546 106.159 13.7583 106.793 13.995C107.427 14.2316 108.005 14.5962 108.491 15.0657C109.378 15.9889 109.873 17.217 109.873 18.4943V23.0748H106.244L106.227 22.6304ZM104.788 16.3213C104.599 16.3369 104.418 16.4041 104.265 16.5154C104.111 16.6267 103.992 16.7778 103.919 16.9522C103.681 17.4298 103.557 17.9557 103.557 18.4888C103.557 19.0219 103.681 19.5477 103.919 20.0253C103.977 20.2082 104.091 20.3682 104.247 20.4817C104.402 20.5953 104.589 20.6565 104.782 20.6565C104.974 20.6565 105.162 20.5953 105.317 20.4817C105.472 20.3682 105.587 20.2082 105.644 20.0253C105.879 19.5468 106.002 19.0213 106.002 18.4888C106.002 17.9562 105.879 17.4307 105.644 16.9522C105.569 16.7847 105.45 16.6405 105.299 16.5351C105.149 16.4296 104.972 16.3669 104.788 16.3534V16.3213Z" fill="#6354F4"/>
<path d="M116.931 22.6304C116.621 23.1053 115.947 23.3432 114.908 23.344C114.325 23.3355 113.749 23.2074 113.218 22.9678C112.687 22.7282 112.211 22.3822 111.82 21.9513C110.934 21.0158 110.44 19.7796 110.437 18.4943C110.426 17.8735 110.537 17.2565 110.765 16.6785C110.993 16.1005 111.333 15.5728 111.766 15.1257C112.199 14.6785 112.716 14.3206 113.288 14.0724C113.86 13.8242 114.475 13.6906 115.099 13.6792C115.236 13.6792 115.373 13.6792 115.51 13.6903C116.186 13.6546 116.862 13.7583 117.496 13.995C118.13 14.2316 118.708 14.5962 119.194 15.0657C120.081 15.9889 120.576 17.217 120.576 18.4943V23.0748H116.949L116.931 22.6304ZM115.491 16.3213C115.302 16.3369 115.121 16.4041 114.968 16.5154C114.815 16.6267 114.695 16.7778 114.623 16.9522C114.385 17.4298 114.261 17.9557 114.261 18.4888C114.261 19.0219 114.385 19.5477 114.623 20.0253C114.68 20.2082 114.795 20.3682 114.95 20.4817C115.105 20.5953 115.292 20.6565 115.485 20.6565C115.678 20.6565 115.865 20.5953 116.02 20.4817C116.175 20.3682 116.29 20.2082 116.347 20.0253C116.582 19.5468 116.705 19.0213 116.705 18.4888C116.705 17.9562 116.582 17.4307 116.347 16.9522C116.272 16.7847 116.153 16.6405 116.002 16.5351C115.852 16.4296 115.675 16.3669 115.491 16.3534V16.3213Z" fill="#6354F4"/>
<path d="M131 15.4078C130.976 16.5815 130.342 17.1684 129.098 17.1684H128.902C128.187 17.1556 127.479 17.0306 126.803 16.798C126.677 16.7619 126.547 16.7428 126.417 16.7412C125.901 16.7412 125.636 17.1807 125.624 18.0598V23.107H121.529V15.6399C121.529 14.3534 122.21 13.7101 123.57 13.7101C124.602 13.7101 125.236 14.0591 125.473 14.7571C126.377 13.9827 127.512 13.5258 128.702 13.457C130.235 13.457 131.001 14.1073 131 15.4078Z" fill="#6354F4"/>
<path d="M25.1282 13.8362C25.4357 13.7521 25.7535 13.7105 26.0724 13.7127C26.7455 13.678 27.4184 13.782 28.0492 14.0183C28.6799 14.2546 29.2548 14.6179 29.7378 15.0856C30.1912 15.5362 30.5493 16.0726 30.7909 16.6632C31.0326 17.2538 31.1529 17.8865 31.1448 18.5241C31.1493 19.8019 30.6536 21.0312 29.7626 21.9515C29.2785 22.4257 28.7002 22.794 28.0647 23.033C27.4293 23.272 26.7507 23.3763 26.0724 23.3392C25.3949 23.3693 24.7182 23.2618 24.0838 23.0233C23.4494 22.7847 22.8704 22.42 22.3823 21.9515C21.5027 21.0239 21.0088 19.7993 21 18.5241V9.93716C21 8.64572 21.687 8 23.061 8C24.435 8 25.1153 8.64572 25.1021 9.93716L25.1282 13.8362ZM26.0786 16.3598C25.8896 16.3755 25.7086 16.4427 25.5554 16.554C25.4022 16.6653 25.2827 16.8163 25.2101 16.9907C24.9556 17.4634 24.8303 17.9943 24.8465 18.5303C24.8303 19.0639 24.9557 19.5924 25.2101 20.0625C25.2825 20.237 25.4019 20.3882 25.5551 20.4995C25.7084 20.6108 25.8895 20.6779 26.0786 20.6934C26.2659 20.6771 26.4451 20.6095 26.5962 20.4982C26.7473 20.3868 26.8645 20.236 26.9348 20.0625C27.1844 19.5909 27.3067 19.063 27.2896 18.5303C27.3068 17.9952 27.1846 17.4648 26.9348 16.9907C26.8649 16.8151 26.7472 16.6624 26.5948 16.5499C26.4425 16.4373 26.2615 16.3693 26.0724 16.3536L26.0786 16.3598Z" fill="#FF87B0"/>
<path d="M38.2264 22.6304C37.917 23.1053 37.2429 23.3432 36.2039 23.344C35.6206 23.3355 35.0453 23.2074 34.5139 22.9678C33.9825 22.7282 33.5065 22.3822 33.1155 21.9513C32.2298 21.0158 31.7356 19.7796 31.7333 18.4943C31.7214 17.8735 31.8326 17.2565 32.0605 16.6785C32.2884 16.1005 32.6286 15.5728 33.0615 15.1257C33.4944 14.6785 34.0116 14.3206 34.5836 14.0724C35.1556 13.8242 35.7711 13.6906 36.395 13.6792C36.5315 13.6792 36.6692 13.6792 36.8057 13.6903C37.4819 13.6546 38.1581 13.7583 38.7921 13.995C39.4261 14.2316 40.004 14.5962 40.4896 15.0657C41.3768 15.9889 41.8719 17.217 41.8719 18.4943V23.0748H38.2264V22.6304ZM36.7871 16.3213C36.5981 16.3371 36.417 16.4043 36.2638 16.5155C36.1106 16.6268 35.9912 16.7779 35.9185 16.9522C35.6645 17.4259 35.54 17.9577 35.5574 18.4943C35.5405 19.0281 35.665 19.557 35.9185 20.0277C35.9912 20.2021 36.1106 20.3532 36.2638 20.4644C36.417 20.5757 36.5981 20.6429 36.7871 20.6586C36.9743 20.6419 37.1532 20.5742 37.3043 20.4629C37.4553 20.3516 37.5726 20.201 37.6432 20.0277C37.893 19.5558 38.0153 19.0274 37.9981 18.4943C38.0151 17.9593 37.8929 17.4289 37.6432 16.9547C37.5677 16.7864 37.4475 16.6417 37.2956 16.5362C37.1437 16.4307 36.9657 16.3684 36.7809 16.3559L36.7871 16.3213Z" fill="#FF87B0"/>
<path d="M46.5396 13.8362C46.8553 13.7474 47.1819 13.7029 47.5099 13.7041C48.1831 13.6697 48.8562 13.7741 49.487 14.0108C50.1177 14.2475 50.6925 14.6113 51.1753 15.0794C51.6242 15.5321 51.9777 16.0694 52.2151 16.6599C52.4525 17.2504 52.5689 17.8821 52.5575 18.5179C52.5642 19.798 52.0682 21.03 51.1753 21.9515C50.6943 22.4229 50.1201 22.7898 49.4892 23.0289C48.8582 23.268 48.1842 23.3741 47.5099 23.3405C46.8323 23.3705 46.1556 23.2628 45.5211 23.024C44.8867 22.7852 44.3078 22.4203 43.8198 21.9515C42.9399 21.0227 42.446 19.7968 42.4375 18.5204V9.93716C42.4375 8.64572 43.1245 8 44.4985 8C45.8725 8 46.5528 8.64572 46.5396 9.93716V13.8362ZM47.4913 16.3598C47.3023 16.3754 47.1212 16.4425 46.9679 16.5538C46.8147 16.6651 46.6953 16.8163 46.6227 16.9907C46.3686 17.4634 46.2441 17.9944 46.2617 18.5303C46.2447 19.0637 46.3692 19.5922 46.6227 20.0625C46.6951 20.2371 46.8144 20.3884 46.9677 20.4997C47.121 20.611 47.3022 20.678 47.4913 20.6934C47.6786 20.6771 47.8578 20.6095 48.0089 20.4982C48.16 20.3868 48.2772 20.236 48.3475 20.0625C48.5971 19.5909 48.7194 19.063 48.7023 18.5303C48.7195 17.9952 48.5973 17.4648 48.3475 16.9907C48.2777 16.8162 48.1608 16.6644 48.0097 16.5519C47.8586 16.4395 47.6792 16.3708 47.4913 16.3536V16.3598Z" fill="#FF87B0"/>
<path d="M53.136 15.6658C53.1194 15.2147 53.2739 14.7738 53.5688 14.4307C53.8637 14.0876 54.2774 13.8674 54.7279 13.8138H55.0766C55.4295 13.8163 55.7753 13.9124 56.0784 14.0921C56.3815 14.2718 56.6311 14.5286 56.8013 14.8361C56.9208 15.072 56.9829 15.3325 56.9825 15.5967V18.2832C56.9825 19.457 57.3816 20.0669 58.1799 20.113C58.979 20.071 59.3785 19.4611 59.3785 18.2832V15.6547C59.3622 15.2016 59.5184 14.7592 59.8159 14.4158C60.1133 14.0724 60.5301 13.8535 60.9829 13.8027H61.3191C61.675 13.7949 62.0265 13.8825 62.3367 14.0563C62.6469 14.2301 62.9044 14.4836 63.0823 14.7904C63.2001 15.0259 63.2609 15.2855 63.2597 15.5485V25.1256C63.2597 27.0435 62.0061 28.0024 59.4989 28.0024C56.9916 28.0024 55.7636 27.1612 55.8149 25.4788C55.8149 24.3264 56.3795 23.7503 57.5086 23.7503C57.8534 23.7514 58.1867 23.8735 58.45 24.095C58.7132 24.3165 58.8895 24.6233 58.9479 24.9614C59.0919 25.3565 59.1961 25.5541 59.278 25.5541C59.3599 25.5541 59.3872 25.4306 59.3785 25.1837V23.0342C58.895 23.2972 58.3416 23.4055 57.794 23.3441C54.6779 23.3441 53.1203 21.611 53.1211 18.145L53.136 15.6658Z" fill="#FF87B0"/>
</g>
<defs>
<clipPath id="clip0">
<rect width="110" height="20" fill="white" transform="translate(21 8)"/>
</clipPath>
</defs>
</svg>
