<svg xmlns="http://www.w3.org/2000/svg" width="18" height="11" viewBox="0 0 17.04 10.86"><defs><style>.cls-1{fill:#a0a5aa;}</style></defs><title>shaw</title><g id="Слой_2" data-name="Слой 2"><g id="Слой_1-2" data-name="Слой 1"><path class="cls-1" d="M16.93,5.1C16.78,4.89,13.15,0,8.52,0S.26,4.89.11,5.1a.56.56,0,0,0,0,.66c.15.21,3.78,5.1,8.41,5.1S16.78,6,16.93,5.76A.56.56,0,0,0,16.93,5.1ZM8.52,9.73c-3.41,0-6.37-3.25-7.24-4.31C2.15,4.37,5.1,1.12,8.52,1.12s6.37,3.24,7.24,4.31C14.88,6.49,11.94,9.73,8.52,9.73Z"/><path class="cls-1" d="M8.52,2.06a3.37,3.37,0,1,0,3.37,3.37A3.37,3.37,0,0,0,8.52,2.06Zm0,5.62a2.25,2.25,0,1,1,2.25-2.25A2.25,2.25,0,0,1,8.52,7.68Z"/></g></g></svg>