<svg xmlns="http://www.w3.org/2000/svg" width="21" height="21" fill="#a0a5aa" viewBox="0 0 16.66 16.66"><title>smile_1</title><g id="Слой_2" data-name="Слой 2"><g id="Слой_1-2" data-name="Слой 1"><path d="M8.33,1a7.24,7.24,0,0,1,7.29,7.29,7.24,7.24,0,0,1-7.29,7.29A7.24,7.24,0,0,1,1,8.33,7.24,7.24,0,0,1,8.33,1Zm0-1a8.33,8.33,0,1,0,8.33,8.33A8.35,8.35,0,0,0,8.33,0Z"/><path d="M7.29,6a1,1,0,1,1-1-1A1,1,0,0,1,7.29,6Z"/><path d="M11.45,6a1,1,0,1,1-1-1A1,1,0,0,1,11.45,6Z"/><path d="M13.12,9.51a.52.52,0,0,0-.27-.67.51.51,0,0,0-.67.25h0a4.26,4.26,0,0,1-3.85,2.5A4.1,4.1,0,0,1,4.48,9.1a.5.5,0,0,0-.66-.25.51.51,0,0,0-.27.67,5.19,5.19,0,0,0,4.79,3.23,5,5,0,0,0,4.78-3.22h0Z"/></g></g></svg>