<svg width="26" height="24" viewBox="0 0 26 24" fill="none" xmlns="http://www.w3.org/2000/svg">
<path d="M11.5556 2.21396L14.1781 10.2251H22.6157L15.7744 15.1753L18.3969 23.1865L11.5556 18.2362L4.67632 23.1865L7.29881 15.1753L0.45752 10.2251H8.93312L11.5556 2.21396Z" fill="#FFA9C8"/>
<path d="M13 1.15591L15.6225 9.16703H24.0981L17.2188 14.1173L19.8412 22.1284L13 17.1781L6.15866 22.1284L8.74315 14.1173L1.90186 9.16703H10.3775L13 1.15591Z" fill="#B17FDE"/>
<path d="M14.4443 0.13559L17.0668 8.1467H25.5424L18.7011 13.097L21.2856 21.1081L14.4443 16.1578L7.603 21.1081L10.2255 13.097L3.34619 8.1467H11.8218L14.4443 0.13559Z" fill="#6354F4"/>
</svg>
