<svg width="600" height="342" viewBox="0 0 600 342" fill="none" xmlns="http://www.w3.org/2000/svg">
<rect x="51.812" width="485.882" height="329.333" rx="10" fill="#E0E4F2"/>
<path d="M62.1743 15.3636C62.1743 12.6022 64.4129 10.3636 67.1743 10.3636H522.331C525.093 10.3636 527.331 12.6022 527.331 15.3636V323.182C527.331 325.943 525.093 328.182 522.331 328.182H67.1743C64.4129 328.182 62.1743 325.943 62.1743 323.182V15.3636Z" fill="white"/>
<path d="M62.1743 15.3636C62.1743 12.6022 64.4129 10.3636 67.1743 10.3636H522.331C525.093 10.3636 527.331 12.6022 527.331 15.3636V321.273H62.1743V15.3636Z" fill="white"/>
<path d="M62.1743 15.3636C62.1743 12.6022 64.4129 10.3636 67.1743 10.3636H522.331C525.093 10.3636 527.331 12.6022 527.331 15.3636V34.5455H62.1743V15.3636Z" fill="#F7F8FC"/>
<path d="M80.7498 26.2708C80.7498 26.2708 79.708 26.8155 79.373 27.4779C79.373 27.4779 79.2981 27.1475 79.1558 26.5339C79.0135 25.9204 78.5791 25.7093 78.4047 25.795C78.2303 25.8807 78.1874 26.3075 78.3006 26.5477C78.3006 26.5477 78.0039 26.2341 77.8142 26.2953C77.626 26.3565 77.6398 26.5814 77.5021 26.6854C77.3659 26.7894 77.1793 26.7237 77.1487 26.8736C77.1181 27.0251 77.2053 27.201 77.1701 27.2897C77.135 27.377 77.1059 27.5254 77.5128 28.0884C77.9182 28.6499 78.6938 29.2068 79.3042 29.2833C79.9161 29.3582 79.8381 29.1869 79.9773 29.0752C80.1165 28.9635 81.2103 28.3194 81.2103 28.3194C80.8997 27.6799 80.7422 26.9792 80.7498 26.2708Z" fill="#FFDCA5"/>
<path d="M87.2413 26.6179C87.2413 26.6179 88.3458 27.6751 88.4635 28.0745C88.4635 28.0745 88.5676 27.7516 88.7634 27.1626C88.9592 26.5751 89.4105 26.393 89.5757 26.494C89.7409 26.595 89.7455 27.0249 89.6139 27.2513C89.6139 27.2513 89.9367 26.9652 90.1218 27.0433C90.3054 27.1213 90.2687 27.3401 90.3987 27.4441C90.5287 27.5482 90.6695 27.5221 90.6863 27.6797C90.7031 27.8373 90.6481 27.9888 90.6863 28.0836C90.7245 28.1785 90.7291 28.3193 90.2748 28.8486C89.822 29.378 88.9883 29.8584 88.3871 29.8798C87.7859 29.9012 87.8654 29.7375 87.7354 29.6136C87.4309 29.4116 87.1158 29.228 86.7915 29.0628C87.024 28.2672 87.1739 27.4472 87.2413 26.6179Z" fill="#FFDCA5"/>
<path d="M88.7428 18.3172C88.5363 18.2958 88.3298 18.2897 88.1217 18.2988C87.5879 16.2242 85.7781 14.8075 83.82 15.0355C83.5217 15.0691 83.2295 15.141 82.9496 15.2481C80.0644 16.0605 80.1027 18.6247 80.3841 19.7003C80.3841 19.7003 79.7493 19.4647 79.5275 20.0751C79.3056 20.6871 79.6896 21.1323 80.2189 21.2869C80.5754 21.3909 80.7436 21.3297 80.814 21.2869C81.5483 22.927 83.1423 23.978 84.848 23.7776C86.6838 23.5604 88.0575 21.9677 88.2518 20.0002C88.6235 20.0369 88.9723 19.812 89.0916 19.457C89.2737 18.8313 89.0794 18.3447 88.7428 18.3172Z" fill="#FFDCA5"/>
<path d="M84.2543 21.5119C84.9412 21.853 85.7734 21.5731 86.1145 20.8861C86.1344 20.8463 86.1528 20.805 86.1681 20.7637C86.1864 20.704 86.0855 20.6505 86.0564 20.704C85.905 21.0116 85.6571 21.2609 85.3481 21.4124C84.9963 21.5623 84.6001 21.57 84.2436 21.4338C84.2038 21.4216 84.2054 21.4981 84.2436 21.5164L84.2543 21.5119Z" fill="#5E403E"/>
<path d="M82.9369 19.406C82.891 19.3173 82.8008 19.2622 82.7013 19.2637C82.6249 19.2744 82.5591 19.3218 82.5239 19.3907C82.4749 19.4978 82.4688 19.6202 82.5055 19.7334C82.553 19.9201 82.7411 20.1587 82.9538 20.0241C83.1664 19.8895 83.0302 19.5513 82.9369 19.406Z" fill="#5E403E"/>
<path d="M82.7672 19.3342C82.6923 19.296 82.6326 19.3939 82.6724 19.4551C82.7121 19.5163 82.7642 19.5729 82.833 19.5285C82.8559 19.5102 82.8682 19.4826 82.8636 19.4536C82.8559 19.3985 82.8192 19.3541 82.7672 19.3342Z" fill="white"/>
<path d="M86.1595 18.7153C86.1136 18.6281 86.0218 18.5731 85.9239 18.5761C85.8489 18.5868 85.7847 18.6342 85.7495 18.7016C85.7021 18.8102 85.6959 18.9341 85.7357 19.0458C85.7831 19.2294 85.9713 19.4665 86.1793 19.3319C86.3859 19.1973 86.2512 18.8607 86.1595 18.7153Z" fill="#5E403E"/>
<path d="M85.9928 18.6451C85.9179 18.6069 85.8582 18.7017 85.898 18.7629C85.9377 18.8241 85.9882 18.8807 86.0555 18.8364C86.0785 18.8195 86.0892 18.792 86.0861 18.7629C86.0785 18.7094 86.0433 18.665 85.9928 18.6451Z" fill="white"/>
<path d="M83.7376 16.6321C83.3123 16.7315 82.8304 16.5893 82.7677 16.0981C82.7585 15.8671 82.8993 15.656 83.1165 15.5764C83.2389 15.5152 83.3857 15.5305 83.4913 15.6162C83.7054 15.7814 83.427 16.1731 83.196 16.017C83.1517 15.9864 83.1058 16.0691 83.144 16.1073C83.2465 16.2037 83.4056 16.2129 83.5173 16.1257C83.6137 16.0568 83.7743 15.9176 83.7391 15.7784C83.6534 15.506 83.3628 15.3546 83.0905 15.4418C83.04 15.4571 82.9926 15.4816 82.9482 15.5122C82.6438 15.7111 82.552 16.1165 82.7402 16.4286C82.9788 16.7484 83.4056 16.8646 83.7743 16.7116C83.8003 16.7116 83.7743 16.6321 83.736 16.6382L83.7376 16.6321Z" fill="#5E403E"/>
<path d="M82.1771 19.0518C82.2367 18.9692 82.3117 18.8988 82.3974 18.8438C82.5014 18.804 82.6161 18.7963 82.7263 18.8254C82.7706 18.8254 82.8012 18.7474 82.7615 18.7198C82.5626 18.576 82.1174 18.7428 82.1312 19.0151C82.1312 19.0411 82.1648 19.0442 82.1786 19.0289V19.0518H82.1771Z" fill="#5E403E"/>
<path d="M85.4064 18.2366C85.4721 18.1417 85.5685 18.0729 85.6802 18.0423C85.7796 18.0285 85.8821 18.0377 85.977 18.0698C86.029 18.0698 86.0473 17.9903 86.0152 17.9582C85.8102 17.7715 85.4247 17.9321 85.3375 18.1708C85.3314 18.1922 85.3436 18.2137 85.365 18.2198C85.3788 18.2228 85.3926 18.2198 85.4033 18.2106L85.4064 18.2366Z" fill="#5E403E"/>
<path d="M84.6436 19.7217C84.7583 19.7294 84.8577 19.8028 84.9006 19.9084C84.9311 20.0445 84.9036 20.1868 84.8225 20.3C84.8011 20.3429 84.8837 20.3658 84.9128 20.3383C85.0367 20.2144 85.0749 20.0292 85.0122 19.8655C84.9617 19.7248 84.821 19.6376 84.6726 19.6559C84.6558 19.6559 84.6436 19.6697 84.6436 19.685C84.6436 19.7018 84.6573 19.7141 84.6726 19.7141L84.6436 19.7217Z" fill="#5E403E"/>
<path d="M86.4617 24.044C86.272 24.0011 86.1527 23.8145 86.194 23.6248C86.2353 23.4351 86.4235 23.3157 86.6132 23.357C86.8044 23.3999 86.9237 23.588 86.8809 23.7778C86.8763 23.8022 86.8687 23.8252 86.8579 23.8466C86.7891 23.9965 86.6254 24.0792 86.4633 24.0455H86.4617V24.044ZM83.4236 23.0694C83.2339 23.0281 83.1146 22.8399 83.1559 22.6502C83.1987 22.4605 83.3854 22.3411 83.5751 22.3824C83.7647 22.4253 83.8841 22.6119 83.8428 22.8016C83.8382 22.8261 83.8305 22.8491 83.8198 22.8705C83.751 23.0204 83.5873 23.103 83.4251 23.0694H83.4236ZM88.0313 23.1612L85.3634 22.2738L82.7429 21.4002C82.6817 21.3773 82.6128 21.3773 82.5516 21.4002C82.492 21.4277 82.443 21.4767 82.417 21.5379L79.8011 27.6531C79.7445 27.7878 79.8072 27.9423 79.9418 28.0004C79.948 28.0035 79.9556 28.005 79.9617 28.0081L86.2996 30.0995C86.4296 30.15 86.5765 30.0842 86.6254 29.9542C86.6285 29.945 86.6315 29.9358 86.6346 29.9267L88.2057 23.4779C88.2409 23.3433 88.1644 23.204 88.0313 23.1612Z" fill="#6953F8"/>
<path d="M83.4903 22.7622C83.5653 22.7867 83.605 22.8663 83.5806 22.9412C83.2165 24.0367 83.5408 25.1352 84.3026 25.3876C85.1562 25.6707 85.9379 25.0877 86.3464 23.8623C86.3709 23.7873 86.4519 23.7475 86.5254 23.772C86.6003 23.7965 86.6401 23.8776 86.6156 23.951C86.1598 25.3218 85.2159 25.9904 84.2124 25.6569C83.2868 25.3478 82.8906 24.1178 83.3113 22.8525C83.3343 22.7775 83.4153 22.7377 83.4903 22.7622Z" fill="#FF88B3"/>
<path d="M87.5312 23.5741C87.5312 23.5741 87.1824 23.0386 86.878 23.2864C86.5735 23.5343 87.1701 24.1845 87.1701 24.1845C87.0523 24.3957 86.8917 24.5793 86.6974 24.7246C86.4374 24.8776 86.289 25.2234 86.5628 25.3335C86.7525 25.3993 86.9544 25.4161 87.1533 25.3825C87.1533 25.3825 86.7403 25.8185 87.037 25.996C87.1732 26.1031 87.3629 26.1123 87.5097 26.0174C87.5097 26.0174 87.2742 26.3601 87.8234 26.3601C88.3741 26.3601 88.8315 25.794 89.0609 25.3702C89.3409 24.9373 89.2659 24.3651 88.8835 24.0193C88.4949 23.7255 88.0192 23.568 87.5312 23.5741Z" fill="#FFDCA5"/>
<path d="M81.1586 23.339C80.6583 23.4889 80.2621 23.876 80.1015 24.3732C79.924 24.947 80.4916 25.4396 80.8098 25.6048C81.128 25.7701 81.6129 25.8756 81.7934 25.793C81.9005 25.741 81.9678 25.6309 81.9678 25.5115C82.156 25.4855 82.3227 25.3738 82.4161 25.2071C82.5522 24.9363 82.1499 24.7496 82.1499 24.7496C82.1499 24.7496 82.6226 24.7986 82.6455 24.4727C82.6685 24.1468 81.8317 23.8852 81.6542 23.7261C81.6542 23.7261 82.0979 23.2533 81.8454 23.0177C81.593 22.7821 81.4079 22.9427 81.1586 23.339Z" fill="#FFDCA5"/>
<path opacity="0.33" d="M100.161 27.7343C100.167 27.8 100.184 27.8658 100.21 27.9286C100.184 27.8689 100.167 27.8031 100.161 27.7343Z" fill="black"/>
<path d="M93.9914 18.7151C93.817 18.7151 93.6472 18.7396 93.4865 18.7871V17.2494C93.4865 17.0659 93.4116 16.9006 93.2923 16.7813C93.1714 16.6604 93.0062 16.587 92.8226 16.587C92.4585 16.587 92.1587 16.8853 92.1587 17.251V20.265C92.1587 20.3048 92.1618 20.3445 92.1694 20.3813C92.1618 20.4455 92.1587 20.5098 92.1587 20.5756C92.1587 21.6022 92.9787 22.436 93.9914 22.436C95.0025 22.436 95.8225 21.6037 95.8225 20.5756C95.8225 19.549 95.0025 18.7151 93.9914 18.7151ZM93.9914 21.3849C93.7129 21.3849 93.4865 21.0223 93.4865 20.5756C93.4865 20.1288 93.7114 19.7662 93.9914 19.7662C94.2698 19.7662 94.4962 20.1288 94.4962 20.5756C94.4962 21.0223 94.2698 21.3849 93.9914 21.3849Z" fill="#FF87B2"/>
<path d="M94.1969 24.8197C94.0225 24.8197 93.8527 24.8442 93.6921 24.8916V23.354C93.6921 23.1719 93.6171 23.0052 93.4978 22.8858C93.377 22.765 93.2118 22.6915 93.0282 22.6915C92.6641 22.6915 92.3643 22.9899 92.3643 23.3555V26.3711C92.3643 26.4109 92.3673 26.4491 92.375 26.4858C92.3673 26.5501 92.3643 26.6159 92.3643 26.6817C92.3643 27.7083 93.1842 28.5421 94.1969 28.5421C95.2081 28.5421 96.0281 27.7083 96.0281 26.6817C96.0281 25.6551 95.2081 24.8197 94.1969 24.8197ZM94.1969 27.4895C93.9185 27.4895 93.6921 27.1269 93.6921 26.6801C93.6921 26.2334 93.917 25.8708 94.1969 25.8708C94.4754 25.8708 94.7018 26.2334 94.7018 26.6801C94.7018 27.1269 94.4754 27.4895 94.1969 27.4895Z" fill="#6752F8"/>
<path d="M101.926 18.7151C101.752 18.7151 101.582 18.7396 101.422 18.7871V17.2494C101.422 17.0659 101.347 16.9006 101.227 16.7813C101.106 16.6604 100.941 16.587 100.759 16.587C100.394 16.587 100.095 16.8853 100.095 17.251V20.265C100.095 20.3048 100.098 20.3445 100.106 20.3813C100.098 20.4455 100.095 20.5098 100.095 20.5756C100.095 21.6022 100.915 22.436 101.926 22.436C102.939 22.436 103.759 21.6037 103.759 20.5756C103.759 19.549 102.939 18.7151 101.926 18.7151ZM101.926 21.3849C101.648 21.3849 101.422 21.0223 101.422 20.5756C101.422 20.1288 101.648 19.7662 101.926 19.7662C102.205 19.7662 102.431 20.1288 102.431 20.5756C102.431 21.0223 102.206 21.3849 101.926 21.3849Z" fill="#FF87B2"/>
<path d="M99.7897 20.6704C99.7913 20.6383 99.7913 20.6062 99.7913 20.5756C99.7913 19.549 98.9698 18.7151 97.9586 18.7151C96.9474 18.7151 96.1274 19.549 96.1274 20.5756C96.1274 21.6022 96.9489 22.436 97.9601 22.436C98.2232 22.436 98.4726 22.3809 98.699 22.2769C98.8153 22.3748 98.9636 22.436 99.1273 22.436C99.4929 22.436 99.7913 22.1377 99.7913 21.772V20.724C99.7913 20.7072 99.7897 20.6903 99.7897 20.6735V20.6704ZM97.9601 21.3849C97.6817 21.3849 97.4553 21.0223 97.4553 20.5756C97.4553 20.1288 97.6802 19.7662 97.9601 19.7662C98.2385 19.7662 98.4649 20.1288 98.4649 20.5756C98.4649 21.0223 98.2385 21.3849 97.9601 21.3849Z" fill="#FF87B2"/>
<path d="M99.9944 26.775C99.9959 26.7429 99.9959 26.7123 99.9959 26.6801C99.9959 25.6535 99.1744 24.8197 98.1632 24.8197C97.1521 24.8197 96.3306 25.652 96.3306 26.6801C96.3306 27.7083 97.1521 28.5406 98.1632 28.5406C98.4264 28.5406 98.6772 28.484 98.9037 28.3814C99.0199 28.4809 99.1683 28.5406 99.332 28.5406C99.6976 28.5406 99.9959 28.2422 99.9959 27.8766V26.8285C99.9959 26.8117 99.9944 26.7949 99.9944 26.778V26.775ZM98.1648 27.4895C97.8864 27.4895 97.6599 27.1269 97.6599 26.6801C97.6599 26.2334 97.8848 25.8708 98.1648 25.8708C98.4432 25.8708 98.6696 26.2334 98.6696 26.6801C98.6696 27.1269 98.4432 27.4895 98.1648 27.4895Z" fill="#6752F8"/>
<path d="M108.083 26.7749C108.084 26.7428 108.084 26.7122 108.084 26.6801C108.084 25.6596 107.263 24.8334 106.252 24.8334C105.24 24.8334 104.419 25.6611 104.419 26.6801C104.419 27.699 105.24 28.5267 106.252 28.5267C106.515 28.5267 106.766 28.4701 106.992 28.3692C107.108 28.4686 107.258 28.5267 107.42 28.5267C107.786 28.5267 108.084 28.2299 108.084 27.8673V26.827C108.084 26.8101 108.083 26.7933 108.083 26.7765V26.7749ZM106.131 27.4711C105.852 27.4711 105.626 27.1115 105.626 26.6679C105.626 26.2242 105.851 25.8646 106.131 25.8646C106.409 25.8646 106.636 26.2242 106.636 26.6679C106.636 27.1115 106.409 27.4711 106.131 27.4711Z" fill="#6752F8"/>
<path d="M111.97 26.775C111.971 26.7429 111.971 26.7123 111.971 26.6801C111.971 25.6535 111.15 24.8197 110.139 24.8197C109.128 24.8197 108.306 25.652 108.306 26.6801C108.306 27.7083 109.128 28.5406 110.139 28.5406C110.402 28.5406 110.653 28.484 110.879 28.3814C110.996 28.4809 111.144 28.5406 111.308 28.5406C111.673 28.5406 111.971 28.2422 111.971 27.8766V26.8285C111.971 26.8117 111.97 26.7949 111.97 26.778V26.775ZM110.14 27.4895C109.862 27.4895 109.636 27.1269 109.636 26.6801C109.636 26.2334 109.86 25.8708 110.14 25.8708C110.419 25.8708 110.645 26.2334 110.645 26.6801C110.644 27.1269 110.419 27.4895 110.14 27.4895Z" fill="#6752F8"/>
<path opacity="0.33" d="M107.755 22.8414V22.9195C107.755 22.9516 107.753 22.9852 107.747 23.0174C107.752 22.9592 107.755 22.9011 107.755 22.8414Z" fill="black"/>
<path opacity="0.33" d="M105.105 23.7441C105.01 23.6446 104.946 23.5146 104.929 23.3708C104.958 23.4901 105.013 23.6202 105.105 23.7441Z" fill="black"/>
<path d="M107.756 19.3792V22.8414C107.756 22.9011 107.754 22.9593 107.748 23.0159C107.693 23.6661 107.312 24.2383 106.429 24.2383C105.7 24.2383 105.309 24.0088 105.108 23.7426C105.014 23.6202 104.959 23.4902 104.932 23.3693C104.93 23.3616 104.93 23.354 104.93 23.3463C104.929 23.3264 104.927 23.3081 104.927 23.2882C104.927 23.1061 105.002 22.9394 105.121 22.82C105.242 22.6992 105.407 22.6257 105.589 22.6257C105.771 22.6257 105.938 22.7007 106.059 22.82C106.128 22.8889 106.181 22.9715 106.215 23.0648C106.215 23.0648 106.431 23.1536 106.431 22.9179V22.358C106.267 22.4069 106.093 22.433 105.912 22.433C105.019 22.433 104.274 21.7827 104.113 20.9229C104.092 20.8097 104.081 20.6919 104.081 20.5725V19.3761C104.081 19.012 104.379 18.7121 104.745 18.7121C104.909 18.7121 105.059 18.7718 105.173 18.8712C105.187 18.8819 105.199 18.8942 105.213 18.9079C105.334 19.0288 105.407 19.194 105.407 19.3761V20.5725C105.407 21.0193 105.637 21.3819 105.918 21.3819C106.201 21.3819 106.431 21.0193 106.431 20.5725V19.3761C106.431 19.1772 106.521 18.9967 106.66 18.8758C106.777 18.7733 106.928 18.7121 107.093 18.7121C107.275 18.7121 107.442 18.7871 107.561 18.9064C107.681 19.0303 107.756 19.1971 107.756 19.3792Z" fill="#FF87B2"/>
<path d="M104.11 20.9259C104.088 20.8617 104.078 20.7928 104.078 20.7209V20.5756C104.078 20.6949 104.088 20.8127 104.11 20.9259Z" fill="#FF87B2"/>
<path d="M103.909 27.8766C103.909 28.0586 103.834 28.2254 103.715 28.3447C103.594 28.4656 103.429 28.539 103.247 28.539H101.029C100.854 28.539 100.692 28.4702 100.574 28.357C100.558 28.3401 100.541 28.3248 100.525 28.305C100.51 28.2881 100.496 28.2698 100.483 28.2499C100.469 28.2315 100.458 28.2116 100.446 28.1917C100.435 28.1718 100.424 28.152 100.417 28.1321C100.391 28.0693 100.374 28.0036 100.368 27.9378C100.363 27.8873 100.363 27.8368 100.371 27.7878C100.372 27.771 100.374 27.7557 100.377 27.7404C100.382 27.719 100.386 27.6976 100.394 27.6761C100.408 27.6348 100.424 27.5935 100.444 27.5568C100.469 27.5078 100.502 27.4589 100.542 27.416L101.732 26.1447H101.027C100.662 26.1447 100.363 25.8463 100.363 25.4807C100.363 25.1165 100.662 24.8167 101.027 24.8167H103.245C103.395 24.8167 103.533 24.8671 103.643 24.9528C103.651 24.9574 103.658 24.962 103.666 24.9696C103.68 24.9804 103.695 24.9911 103.707 25.0048C103.847 25.1349 103.917 25.3124 103.917 25.4898C103.917 25.6535 103.857 25.8157 103.738 25.9427L102.552 27.2095H103.244C103.611 27.2126 103.909 27.5109 103.909 27.8766Z" fill="#6752F8"/>
<path opacity="0.33" d="M100.239 27.3548C100.218 27.3923 100.201 27.4344 100.187 27.4766C100.198 27.4344 100.215 27.3938 100.239 27.3548Z" fill="black"/>
<path d="M104.93 23.3727C104.928 23.3644 104.925 23.3578 104.923 23.3495L104.926 23.3478C104.928 23.3561 104.928 23.3644 104.93 23.3727Z" fill="black"/>
<path d="M115.89 25.577V25.652C115.89 26.0681 115.549 26.4093 115.133 26.4093C114.8 26.4093 114.515 26.1905 114.416 25.8876L114.414 25.8861C114.263 25.7086 113.816 26.1049 113.816 26.1049V27.8735C113.816 28.2376 113.518 28.5375 113.152 28.5375H113.008C112.644 28.5375 112.344 28.2392 112.344 27.8735V25.4837C112.344 25.1196 112.643 24.8197 113.008 24.8197H113.152C113.423 24.8197 113.657 24.9834 113.758 25.2175C113.909 25.1333 114.077 25.0492 114.244 24.9834C114.637 24.8274 114.962 24.8166 115.113 24.8212H115.119C115.124 24.8197 115.127 24.8197 115.131 24.8197C115.34 24.8197 115.529 24.9054 115.665 25.0415C115.805 25.1808 115.89 25.369 115.89 25.577Z" fill="#6752F8"/>
<rect x="178.554" y="79.1486" width="73.3176" height="78.3656" fill="#E0E4F2" stroke="#FF7EAD"/>
<rect x="77.1421" y="79.0876" width="87.7622" height="160.126" fill="#F7F8FC"/>
<rect x="77.1421" y="52.1934" width="28.9713" height="12.5977" fill="#F7F8FC"/>
<rect x="178.054" y="52.1934" width="34.0098" height="12.5977" fill="#F7F8FC"/>
<rect x="218.362" y="52.1934" width="56.683" height="12.5977" fill="#F7F8FC"/>
<rect x="178.054" y="189.508" width="74.3176" height="79.3656" fill="#E0E4F2"/>
<rect x="264.968" y="78.6486" width="74.3177" height="79.3656" fill="#E0E4F2"/>
<rect x="264.968" y="189.508" width="74.3177" height="79.3656" fill="#E0E4F2"/>
<rect x="351.883" y="78.6486" width="74.3176" height="79.3656" fill="#E0E4F2"/>
<rect x="351.883" y="189.508" width="74.3176" height="79.3656" fill="#E0E4F2"/>
<rect x="438.796" y="78.6486" width="74.3176" height="79.3656" fill="#E0E4F2"/>
<rect x="438.796" y="189.508" width="74.3176" height="79.3656" fill="#E0E4F2"/>
<rect x="178.054" y="164.313" width="61.7214" height="3.77933" rx="1.88966" fill="#E0E4F2"/>
<rect x="264.968" y="164.313" width="61.7215" height="3.77933" rx="1.88966" fill="#E0E4F2"/>
<rect x="351.883" y="164.313" width="61.7214" height="3.77933" rx="1.88966" fill="#E0E4F2"/>
<rect x="438.796" y="164.313" width="61.7214" height="3.77933" rx="1.88966" fill="#E0E4F2"/>
<rect x="438.796" y="275.173" width="61.7214" height="3.7793" rx="1.88965" fill="#E0E4F2"/>
<rect x="351.883" y="275.173" width="61.7214" height="3.7793" rx="1.88965" fill="#E0E4F2"/>
<rect x="264.968" y="275.173" width="61.7215" height="3.7793" rx="1.88965" fill="#E0E4F2"/>
<rect x="178.054" y="275.173" width="61.7214" height="3.7793" rx="1.88965" fill="#E0E4F2"/>
<rect x="178.054" y="173.131" width="34.0098" height="3.7793" rx="1.88965" fill="#E0E4F2"/>
<rect x="264.968" y="173.131" width="34.0097" height="3.7793" rx="1.88965" fill="#E0E4F2"/>
<rect x="351.883" y="173.131" width="34.0097" height="3.7793" rx="1.88965" fill="#E0E4F2"/>
<rect x="438.796" y="173.131" width="34.0098" height="3.7793" rx="1.88965" fill="#E0E4F2"/>
<rect x="438.796" y="285.251" width="34.0098" height="3.77933" rx="1.88966" fill="#E0E4F2"/>
<rect x="351.883" y="285.251" width="34.0097" height="3.77933" rx="1.88966" fill="#E0E4F2"/>
<rect x="264.968" y="285.251" width="34.0097" height="3.77933" rx="1.88966" fill="#E0E4F2"/>
<rect x="178.054" y="285.251" width="34.0098" height="3.77933" rx="1.88966" fill="#E0E4F2"/>
<path d="M0 325.879H589.506L580.983 337.812C579.106 340.44 576.075 342 572.845 342H16.6603C13.4306 342 10.3997 340.44 8.52266 337.812L0 325.879Z" fill="#E0E4F2"/>
<path d="M0 321.273H589.506V328.182H0V321.273Z" fill="#F7F8FC"/>
<path d="M475.519 233.758C501.425 233.758 509.37 233.758 531.937 233.758C618.866 233.758 621.169 118.03 531.937 118.03C506.607 118.03 340.232 118.03 235.457 118.03" stroke="#FF7EAD" stroke-width="3" stroke-linecap="round" stroke-linejoin="round"/>
<ellipse cx="476.095" cy="233.182" rx="5.1812" ry="5.18182" fill="#FF7EAD"/>
<path d="M224.519 118.03L239.199 109.554L239.199 126.507L224.519 118.03Z" fill="#FF7EAD"/>
</svg>
