<svg xmlns="http://www.w3.org/2000/svg" viewBox="0 0 18.99 19.15"><defs><style>.cls-1{fill:#000103;}</style></defs><title>view_list</title><g id="Слой_2" data-name="Слой 2"><g id="Слой_1-2" data-name="Слой 1"><path class="cls-1" d="M17.72,18.82H7.16a1.27,1.27,0,0,1,0-2.54H17.72a1.27,1.27,0,0,1,0,2.54Z"/><path class="cls-1" d="M17.72,10.85H7.16a1.27,1.27,0,0,1,0-2.54H17.72a1.27,1.27,0,0,1,0,2.54Z"/><path class="cls-1" d="M17.72,2.88H7.16a1.27,1.27,0,1,1,0-2.54H17.72a1.27,1.27,0,0,1,0,2.54Z"/><circle class="cls-1" cx="1.71" cy="1.71" r="1.71"/><circle class="cls-1" cx="1.71" cy="9.58" r="1.71"/><circle class="cls-1" cx="1.71" cy="17.45" r="1.71"/></g></g></svg>