<svg xmlns="http://www.w3.org/2000/svg" width="21" height="21" viewBox="0 0 19.09 19.09"><defs><style>.cls-1{fill:#4caf50;}</style></defs><title>whatsapp</title><g id="Слой_2" data-name="Слой 2"><g id="Слой_1-2" data-name="Слой 1"><path class="cls-1" d="M9.55,0h0A9.54,9.54,0,0,0,1.82,15.14L.63,18.69,4.3,17.51A9.54,9.54,0,1,0,9.55,0ZM15.1,13.48a2.69,2.69,0,0,1-1.87,1.35c-.5.11-1.15.19-3.34-.72a12,12,0,0,1-4.75-4.2A5.45,5.45,0,0,1,4,7,3,3,0,0,1,5,4.71a1.39,1.39,0,0,1,1-.34h.32c.28,0,.42,0,.61.47s.79,1.92.86,2.07a.57.57,0,0,1,0,.52,1.65,1.65,0,0,1-.31.44c-.14.16-.27.29-.42.46s-.27.31-.11.59a8.47,8.47,0,0,0,1.55,1.92,7,7,0,0,0,2.24,1.38.6.6,0,0,0,.67-.11,11.55,11.55,0,0,0,.75-1,.53.53,0,0,1,.68-.21c.26.09,1.62.76,1.9.9s.47.21.53.33A2.38,2.38,0,0,1,15.1,13.48Z"/></g></g></svg>